<?xml version="1.0" encoding="UTF-8"?><svg id="Layer_2" xmlns="http://www.w3.org/2000/svg" viewBox="0 0 380.26 435.94"><defs><style>.cls-1{fill:#f6f7f8;}.cls-2{fill:#efba95;}.cls-3{fill:#efcfbd;}.cls-4{fill:#ebeaea;}.cls-5{fill:#e3e8ee;}.cls-6{fill:#e9c6b0;}.cls-7{fill:#fff;}.cls-8{fill:#f2ab73;}.cls-9{fill:#6b4932;}.cls-10{fill:#99a2a5;}.cls-11{fill:#7e3912;}.cls-12{fill:#8b8d90;}.cls-13{fill:#934e20;}.cls-14{fill:#a05e3d;}.cls-15{fill:#a04d14;}.cls-16{fill:#b67547;}.cls-17{fill:#b5b4b5;}.cls-18{fill:#b67649;}.cls-19{fill:#b7b3b0;}.cls-20{fill:#b9825e;}.cls-21{fill:#9e5e37;}.cls-22{fill:#c37138;}.cls-23{fill:#b3bbc5;}.cls-24{fill:#c1c6cb;}.cls-25{fill:#b7774a;}.cls-26{fill:#babdc1;}.cls-27{fill:#904213;}.cls-28{fill:#cecfcf;}.cls-29{fill:#ce7a40;}.cls-30{fill:#a5a3a2;}.cls-31{fill:#b35f2a;}.cls-32{fill:#ad6839;}.cls-33{fill:#c06932;}.cls-34{fill:#b2afad;}.cls-35{fill:#bd6934;}.cls-36{fill:#a59083;}.cls-37{fill:#a58a77;}.cls-38{fill:#a55723;}.cls-39{fill:#afacaa;}.cls-40{fill:#bbbdbf;}.cls-41{fill:#a85318;}.cls-42{fill:#aa5d30;}.cls-43{fill:#c19473;}.cls-44{fill:#ac6534;}.cls-45{fill:#c0bdbb;}.cls-46{fill:#d7b39a;}.cls-47{fill:#be6932;}.cls-48{fill:#cad4df;}.cls-49{fill:#d17c43;}.cls-50{fill:#cc8656;}.cls-51{fill:#d38d5d;}.cls-52{fill:#d1d1d1;}.cls-53{fill:#c47946;}.cls-54{fill:#c7733c;}.cls-55{fill:#d78c5b;}.cls-56{fill:#d6ddde;}.cls-57{fill:#cba487;}.cls-58{fill:#c8753a;}.cls-59{fill:#d4956a;}.cls-60{fill:#ad8a75;}.cls-61{fill:#c6896a;}.cls-62{fill:#c6c5c6;}.cls-63{fill:#dbbca7;}.cls-64{fill:#e1eaf0;}.cls-65{fill:#42372d;}.cls-66{fill:#6e5c51;}.cls-67{fill:#9c4d1e;}.cls-68{fill:#957359;}.cls-69{fill:#808284;}.cls-70{fill:#2a303b;}.cls-71{fill:#632d18;}.cls-72{fill:#5f4d41;}.cls-73{fill:#765339;}.cls-74{fill:#614f40;}.cls-75{fill:#733619;}.cls-76{fill:#833e1a;}</style></defs><g id="Layer_3"><polygon class="cls-4" points="70.06 0 63.09 25.78 73.02 95.94 104.66 56.62 70.06 0"/><polygon class="cls-21" points="70.06 0 131.67 52.66 104.64 56.61 70.06 0"/><polygon class="cls-24" points="159.23 61.22 245.82 9.56 261.08 34.16 240.75 101.28 226.07 125.21 203.92 85.37 159.23 61.22"/><polygon class="cls-14" points="240.62 101.4 240.84 154.48 225.94 125.46 240.62 101.4"/><polygon class="cls-42" points="225.94 124.92 206.53 176.76 225.18 191.74 240.84 154.23 225.94 124.92"/><polygon class="cls-47" points="226.07 124.95 173.85 144.25 206.53 176.88 226.07 124.95"/><polygon class="cls-16" points="203.99 85.21 170.96 102.3 173.83 144.28 225.98 124.95 203.99 85.21"/><polygon class="cls-53" points="203.89 85.21 159.17 61.06 140.31 87.21 170.96 102.3 203.89 85.21"/><polygon class="cls-49" points="159.17 61.15 128.11 54.56 117.42 80.43 140.31 87.21 159.17 61.15"/><polygon class="cls-59" points="128.24 54.56 104.64 56.6 91.02 82.19 109.02 79.89 128.24 54.56"/><polygon class="cls-7" points="89.03 81.93 94.12 70.73 72.8 96.39 89.03 81.93"/><polygon class="cls-6" points="73.02 95.88 71.34 131.21 86 124.59 91.06 82.19 73.02 95.88"/><polygon class="cls-2" points="90.98 82.15 109.15 79.77 85.8 124.59 90.98 82.15"/><polygon class="cls-8" points="117.42 80.24 117.36 126.67 140.5 87.31 117.42 80.24"/><polygon class="cls-55" points="178.52 50.49 131.5 52.66 104.64 56.6 128.37 54.69 159.23 61.22 178.52 50.49"/><polygon class="cls-51" points="140.41 87.21 117.35 126.66 171.24 102.49 140.41 87.21"/><polygon class="cls-50" points="171.15 102.49 173.92 144.47 117.07 126.78 171.15 102.49"/><polygon class="cls-16" points="117.38 126.65 174.13 144.49 168.14 172.25 117.38 126.65"/><polygon class="cls-44" points="174.02 144.28 206.47 176.76 168.09 172.29 174.02 144.28"/><polygon class="cls-52" points="85.8 124.49 117.38 126.63 106.54 157.28 67.21 154.61 85.8 124.49"/><polygon class="cls-64" points="85.9 124.49 108.99 79.8 117.58 80.31 117.37 126.65 85.9 124.49"/><polygon class="cls-5" points="85.71 124.59 71.36 131.12 69.21 151.36 85.71 124.59"/><polygon class="cls-62" points="117.37 126.64 127.54 162.48 168.14 172.25 117.37 126.64"/><polygon class="cls-28" points="127.49 162.39 121 179.67 168.14 172.24 127.49 162.39"/><polygon class="cls-39" points="168.09 172.27 108.08 198.87 172.84 202.75 168.09 172.27"/><polygon class="cls-20" points="206.47 176.69 172.77 202.72 225.13 191.6 206.47 176.69"/><polygon class="cls-39" points="105.77 180.1 96.71 180.43 108.96 198.59 115.38 195.85 121.43 179.62 105.77 180.1"/><polygon class="cls-10" points="96.74 180.42 82.77 183.47 83.61 202.75 109.08 198.52 96.74 180.42"/><polygon class="cls-23" points="82.77 183.47 70.49 178.57 64.1 188.65 83.69 202.85 82.77 183.47"/><polygon class="cls-56" points="67.21 154.51 64.13 188.58 70.54 178.56 68.46 154.56 67.21 154.51"/><polygon class="cls-70" points="68.52 154.63 70.52 178.62 82.78 183.54 96.77 180.44 106.6 157.28 68.52 154.63"/><polygon class="cls-12" points="83.64 202.75 125.36 210.74 172.79 202.72 109.08 198.52 83.64 202.75"/><polygon class="cls-64" points="83.61 202.77 75.88 245.11 119.41 273.17 125.28 210.69 83.61 202.77"/><polygon class="cls-24" points="125.33 210.74 172.82 202.67 178.31 257.33 119.31 273.17 125.33 210.74"/><polygon class="cls-40" points="172.68 202.53 178.12 257.33 242.27 268.59 172.68 202.53"/><polygon class="cls-61" points="172.82 202.72 242.31 268.59 225.08 191.6 172.82 202.72"/><polygon class="cls-29" points="225.08 191.55 242.27 268.59 280.78 247.97 225.08 191.55"/><polygon class="cls-22" points="224.99 191.71 240.77 154.1 280.83 248.07 224.99 191.71"/><polygon class="cls-33" points="280.77 247.94 282.24 321.54 242.27 268.5 280.77 247.94"/><polygon class="cls-38" points="242.14 268.24 282.23 321.45 244.37 395.11 242.14 268.24"/><polygon class="cls-75" points="258.88 366.73 245.42 410.35 244.37 395.17 258.88 366.73"/><polygon class="cls-30" points="244.37 395.08 221.65 435.94 246.85 431.64 244.37 395.08"/><polygon class="cls-24" points="244.46 395.11 207.3 401.79 221.68 435.84 244.46 395.11"/><polygon class="cls-5" points="207.3 401.73 191.8 426.97 221.74 435.94 207.3 401.73"/><polygon class="cls-48" points="204.43 392.06 207.3 401.73 192.02 426.72 204.43 392.06"/><polygon class="cls-44" points="193.17 355.27 243.57 338.09 207.36 401.86 193.17 355.27"/><polygon class="cls-15" points="243.38 338.22 207.3 401.79 244.46 395.11 243.38 338.22"/><polygon class="cls-57" points="193.1 355.08 180.95 355.14 203.8 390.08 193.1 355.08"/><polygon class="cls-25" points="194.12 314.99 243.42 338.18 193.04 355.4 194.12 314.99"/><polygon class="cls-12" points="194.26 314.51 128.29 337.23 150.48 354.79 193.15 355.3 194.26 314.51"/><polygon class="cls-43" points="242.08 268.59 194.12 315.11 243.38 338.28 242.08 268.59"/><polygon class="cls-17" points="178.21 257.14 194.35 315.08 242.17 268.5 178.21 257.14"/><polygon class="cls-26" points="178.31 257.04 194.48 314.8 128.57 337.45 119.31 273.17 178.31 257.04"/><polygon class="cls-5" points="75.92 245.11 85.27 302.19 128.57 337.32 119.31 273.17 75.92 245.11"/><polygon class="cls-34" points="85.14 302.19 124.36 348.83 128.67 337.32 85.14 302.19"/><polygon class="cls-69" points="128.62 337.42 124.33 348.92 150.43 354.7 128.62 337.42"/><polygon class="cls-44" points="124.47 348.97 162.03 387.35 181.01 355.21 150.72 354.76 124.47 348.97"/><polygon class="cls-15" points="124.33 348.76 125.99 392.98 162.08 387.35 124.33 348.76"/><polygon class="cls-41" points="258.8 196.85 293.03 213.45 280.69 248.02 258.8 196.85"/><polygon class="cls-31" points="293.08 213.29 304.8 269.55 280.74 247.83 293.08 213.29"/><polygon class="cls-35" points="280.77 247.84 304.86 269.61 282.23 321.45 280.77 247.84"/><polygon class="cls-15" points="317.29 297.58 304.83 269.64 282.14 321.54 317.29 297.58"/><polygon class="cls-27" points="304.8 269.64 364.51 253.7 351.05 306.87 317.3 297.61 304.8 269.64"/><polygon class="cls-11" points="364.51 253.68 372.38 302.38 351 306.87 364.51 253.68"/><polygon class="cls-54" points="364.7 253.65 293.1 213.41 304.8 269.64 364.7 253.65"/><polygon class="cls-58" points="328.8 182.15 293.05 213.41 364.65 253.65 328.8 182.15"/><polygon class="cls-44" points="328.66 182.36 244.57 163.39 258.91 196.99 293.03 213.46 328.66 182.36"/><polygon class="cls-25" points="328.85 182.39 284.73 148.64 244.59 163.42 328.85 182.39"/><polygon class="cls-18" points="338.4 176.76 284.61 148.6 328.66 182.29 338.4 176.76"/><polygon class="cls-47" points="338.35 176.71 328.74 182.05 364.6 253.6 362.55 206.49 338.35 176.71"/><polygon class="cls-32" points="362.55 206.4 380.25 248.67 364.56 253.7 362.55 206.4"/><polygon class="cls-13" points="380.26 248.69 372.38 302.33 364.51 253.72 380.26 248.69"/><polygon class="cls-67" points="372.32 302.35 350.87 306.87 365.45 351.01 372.32 302.35"/><polygon class="cls-76" points="350.87 306.93 338.53 343.47 365.38 350.94 350.87 306.93"/><polygon class="cls-75" points="351 306.81 338.53 343.47 309.68 313.94 351 306.81"/><polygon class="cls-71" points="351.06 306.81 287.54 317.75 317.3 297.55 351.06 306.81"/><polygon class="cls-71" points="310.83 315.13 320.62 344.24 338.56 343.48 310.83 315.13"/><polygon class="cls-5" points="320.64 344.14 338.49 343.38 343.74 373.31 315.87 371.12 320.64 344.14"/><polygon class="cls-30" points="338.53 343.47 343.65 373.31 362.94 365.9 365.38 350.88 338.53 343.47"/><polygon class="cls-2" points="108.02 329.37 124.37 348.83 126.04 393.03 116.26 377.94 108.02 329.37"/><polygon class="cls-5" points="116.26 377.99 126.04 392.93 103.47 413.5 116.26 377.99"/><polygon class="cls-64" points="125.99 392.79 103.51 413.5 133.58 420.38 125.99 392.79"/><polygon class="cls-24" points="125.99 392.88 133.54 420.27 162.13 387.3 125.99 392.88"/><polygon class="cls-30" points="162.03 387.39 151.72 413.93 133.49 420.33 162.03 387.39"/><polygon class="cls-41" points="293.95 153.49 330.46 172.65 331.22 157.54 318.32 128.75 304.41 144.41 293.95 153.49"/><polygon class="cls-6" points="292.28 152.6 293.95 153.49 304.32 144.55 305.65 119.94 294.73 140.47 287.16 149.96 292.28 152.6"/><polygon class="cls-8" points="305.6 119.94 324.6 123.69 304.18 144.74 305.6 119.94"/><polygon class="cls-25" points="168.09 172.25 206.41 176.69 172.84 202.75 168.09 172.25"/><polygon class="cls-3" points="104.65 56.6 90.9 82.38 73.01 95.9 104.65 56.6"/><polygon class="cls-32" points="324.62 123.68 331.2 157.58 315.28 133.29 324.62 123.68"/><polygon class="cls-28" points="106.49 157.28 96.82 180.42 121.24 179.67 127.59 162.39 106.49 157.28"/><polygon class="cls-19" points="121.34 179.57 114.75 196.8 168.14 172.21 121.34 179.57"/><polygon class="cls-45" points="117.37 126.64 106.44 157.28 127.59 162.39 117.37 126.64"/><polygon class="cls-16" points="195.13 39.86 173.49 68.82 159.23 61.25 195.13 39.86"/><polygon class="cls-15" points="245.98 83.2 221.19 116.52 226.06 125.3 240.66 101.44 245.98 83.2"/><polygon class="cls-1" points="108.89 79.83 128.11 54.56 117.58 80.31 108.89 79.83"/><polygon class="cls-37" points="2.66 224.86 37.98 217.38 40.99 216.95 42.18 207.78 .4 215.89 0 219.61 2.66 224.86"/><polyline class="cls-66" points="67.23 205.3 42.13 207.78 41 216.91 73.49 215.53 91.87 213.08"/><polygon class="cls-65" points="100.98 201.72 91.82 213.13 117.68 211.84 130.72 212.17 100.98 201.72"/><polygon class="cls-9" points="114.38 200.88 126.04 200.38 138.5 202.01 146.1 213.15 130.67 212.13 100.98 201.77 114.38 200.88"/><polyline class="cls-74" points="126.04 200.43 116.97 196.04 136.15 193.24 137.88 197.09"/><polygon class="cls-65" points="117.02 196.04 126.09 200.43 100.95 201.77 87.72 202.09 109.07 198.47 117.02 196.04"/><polygon class="cls-68" points="78.78 199.24 35.54 198 33.16 204.44 42.18 207.78 67.29 205.3 83.75 202.82 78.78 199.24"/><polygon class="cls-46" points="26.82 202.02 42.18 207.78 .46 215.85 4.04 206.87 26.82 202.02"/><polygon class="cls-60" points="26.81 202.05 35.64 197.95 33.16 204.39 26.81 202.05"/><polygon class="cls-63" points="28.19 201.43 36.25 188.91 39.64 188.33 35.5 198.04 28.19 201.43"/><polygon class="cls-60" points="38.8 189.92 37.07 198.04 35.54 198 38.8 189.92"/><polygon class="cls-72" points="136.11 193.27 143.66 196.61 137.74 197.19 136.11 193.27"/><polygon class="cls-36" points="137.74 197.14 143.61 196.52 158.69 215.28 137.74 197.14"/><polygon class="cls-37" points="137.93 197.14 138.4 201.96 145.99 213.13 158.72 215.27 137.93 197.14"/><polygon class="cls-73" points="137.88 197.09 138.45 202.05 125.99 200.43 137.88 197.09"/><polygon class="cls-74" points="66.99 205.32 91.87 213.13 101.03 201.72 87.88 202.05 66.99 205.32"/></g></svg>