<?xml version="1.0" encoding="UTF-8"?><svg id="Layer_1" xmlns="http://www.w3.org/2000/svg" viewBox="0 0 1129 663"><defs><style>.cls-1{fill:#f6f7f8;}.cls-2{fill:#f2f2f2;}.cls-3{fill:#efba95;}.cls-4{fill:#efcfbd;}.cls-5{fill:#ebeaea;}.cls-6{fill:#e3e8ee;}.cls-7{fill:#e9c6b0;}.cls-8{fill:#fff;}.cls-9{fill:#f2ab73;}.cls-10{fill:#6b4932;}.cls-11{fill:#99a2a5;}.cls-12{fill:#7e3912;}.cls-13{fill:#8b8d90;}.cls-14{fill:#934e20;}.cls-15{fill:#a05e3d;}.cls-16{fill:#a04d14;}.cls-17{fill:#b67547;}.cls-18{fill:#b5b4b5;}.cls-19{fill:#b67649;}.cls-20{fill:#b7b3b0;}.cls-21{fill:#b9825e;}.cls-22{fill:#9e5e37;}.cls-23{fill:#c37138;}.cls-24{fill:#b3bbc5;}.cls-25{fill:#c1c6cb;}.cls-26{fill:#b7774a;}.cls-27{fill:#babdc1;}.cls-28{fill:#904213;}.cls-29{fill:#cecfcf;}.cls-30{fill:#ce7a40;}.cls-31{fill:#a5a3a2;}.cls-32{fill:#b35f2a;}.cls-33{fill:#ad6839;}.cls-34{fill:#c06932;}.cls-35{fill:#b2afad;}.cls-36{fill:#bd6934;}.cls-37{fill:#a59083;}.cls-38{fill:#a58a77;}.cls-39{fill:#a55723;}.cls-40{fill:#afacaa;}.cls-41{fill:#bbbdbf;}.cls-42{fill:#a85318;}.cls-43{fill:#aa5d30;}.cls-44{fill:#c19473;}.cls-45{fill:#ac6534;}.cls-46{fill:#c0bdbb;}.cls-47{fill:#d7b39a;}.cls-48{fill:#be6932;}.cls-49{fill:#cad4df;}.cls-50{fill:#d17c43;}.cls-51{fill:#cc8656;}.cls-52{fill:#d38d5d;}.cls-53{fill:#d1d1d1;}.cls-54{fill:#c47946;}.cls-55{fill:#c7733c;}.cls-56{fill:#d78c5b;}.cls-57{fill:#d6ddde;}.cls-58{fill:#cba487;}.cls-59{fill:#c8753a;}.cls-60{fill:#d4956a;}.cls-61{fill:#ad8a75;}.cls-62{fill:#c6896a;}.cls-63{fill:#c6c5c6;}.cls-64{fill:#dbbca7;}.cls-65{fill:#e1eaf0;}.cls-66{fill:#42372d;}.cls-67,.cls-68{fill:#3ecc5f;}.cls-69{fill:#3f3d56;}.cls-70{fill:#6e5c51;}.cls-71{fill:#9c4d1e;}.cls-72{fill:#957359;}.cls-73{fill:#808284;}.cls-74{fill:#2a303b;}.cls-75{fill:#2e8555;}.cls-76{fill:#632d18;}.cls-77{fill:#5f4d41;}.cls-78{fill:#606060;}.cls-79{fill:#765339;}.cls-80{fill:#614f40;}.cls-81{fill:#733619;}.cls-82{fill:#833e1a;}.cls-83{opacity:.1;}.cls-83,.cls-84{isolation:isolate;}.cls-68{fill-rule:evenodd;}.cls-84{opacity:.2;}</style></defs><circle class="cls-2" cx="321" cy="321" r="321"/><ellipse class="cls-69" cx="559" cy="635.5" rx="514" ry="27.5"/><ellipse class="cls-84" cx="558" cy="627" rx="460" ry="22"/><rect class="cls-69" x="131" y="152.5" width="840" height="50"/><path class="cls-69" d="M131,608.83c0,11.97,9.7,21.67,21.67,21.67H949.33c11.97,0,21.67-9.7,21.67-21.67h0V177.5H131v431.33Z"/><path class="cls-69" d="M949.33,117.5H152.67c-11.97,0-21.67,9.7-21.67,21.67h0v38.33H971v-38.33c0-11.97-9.7-21.67-21.67-21.67h0Z"/><path class="cls-84" d="M949.33,117.5H152.67c-11.97,0-21.67,9.7-21.67,21.67h0v38.33H971v-38.33c0-11.97-9.7-21.67-21.67-21.67h0Z"/><circle class="cls-69" cx="181" cy="147.5" r="13"/><circle class="cls-69" cx="217" cy="147.5" r="13"/><circle class="cls-69" cx="253" cy="147.5" r="13"/><rect class="cls-78" x="168" y="213.5" width="337" height="386" rx="5.34" ry="5.34"/><rect class="cls-75" x="603" y="272.5" width="284" height="22" rx="5.48" ry="5.48"/><rect class="cls-75" x="537" y="352.5" width="416" height="15" rx="5.48" ry="5.48"/><rect class="cls-75" x="537" y="396.5" width="416" height="15" rx="5.48" ry="5.48"/><rect class="cls-75" x="537" y="440.5" width="416" height="15" rx="5.48" ry="5.48"/><rect class="cls-75" x="537" y="484.5" width="416" height="15" rx="5.48" ry="5.48"/><rect class="cls-67" x="865" y="552.5" width="88" height="26" rx="7.03" ry="7.03"/><path class="cls-69" d="M1053.1,506.12c2.66-4.64,4.04-9.91,3.98-15.27,0-13.8-8.54-24.98-19.08-24.98s-19.08,11.18-19.08,24.98c-.05,5.35,1.32,10.62,3.98,15.27-5.31,9.48-5.31,21.05,0,30.53-5.31,9.48-5.31,21.05,0,30.53-5.31,9.48-5.31,21.05,0,30.53-2.66,4.64-4.04,9.91-3.98,15.27,0,13.8,8.54,24.98,19.08,24.98s19.08-11.18,19.08-24.98c.05-5.35-1.32-10.62-3.98-15.27,5.31-9.48,5.31-21.05,0-30.53,5.31-9.48,5.31-21.05,0-30.53,5.31-9.48,5.31-21.05,0-30.53Z"/><ellipse class="cls-69" cx="1038" cy="460.32" rx="19.08" ry="24.98"/><ellipse class="cls-69" cx="1038" cy="429.79" rx="19.08" ry="24.98"/><path class="cls-68" d="M1109.44,220.84c2.61-3.32,4.98-6.81,7.11-10.46l-50.14-8.23,54.23,.4c10.51-22.88,11.15-49.07,1.75-72.43l-72.75,37.74,67.1-49.32c-25.29-43.7-81.21-58.62-124.91-33.33-43.7,25.29-58.62,81.21-33.33,124.91,2.17,3.74,4.59,7.33,7.27,10.73-4.06,5.17-7.56,10.75-10.42,16.67l65.09,33.81-69.4-23.29c-9.9,29.27-4.36,61.55,14.74,85.84-31.21,39.68-24.34,97.14,15.33,128.35,39.68,31.21,97.14,24.34,128.35-15.33,26.08-33.16,26.08-79.86,0-113.02,26.08-33.16,26.08-79.87,0-113.03Z"/><path class="cls-83" d="M946.19,277.36c-.03,20.5,6.86,40.42,19.56,56.51-31.21,39.68-24.34,97.14,15.33,128.35,39.68,31.21,97.14,24.34,128.35-15.33,26.08-33.16,26.08-79.86,0-113.02,12.25-15.55-163.25-66.77-163.25-56.51Z"/><g id="Layer_3"><polygon class="cls-5" points="239.44 245.03 234.26 264.19 241.64 316.34 265.16 287.11 239.44 245.03"/><polygon class="cls-22" points="239.44 245.03 285.24 284.17 265.15 287.1 239.44 245.03"/><polygon class="cls-25" points="305.72 290.53 370.08 252.13 381.42 270.42 366.31 320.31 355.4 338.09 338.94 308.48 305.72 290.53"/><polygon class="cls-15" points="366.21 320.39 366.38 359.85 355.3 338.28 366.21 320.39"/><polygon class="cls-43" points="355.3 337.88 340.88 376.41 354.74 387.54 366.38 359.66 355.3 337.88"/><polygon class="cls-48" points="355.4 337.9 316.59 352.24 340.88 376.5 355.4 337.9"/><polygon class="cls-17" points="338.99 308.36 314.44 321.06 316.57 352.27 355.33 337.9 338.99 308.36"/><polygon class="cls-54" points="338.91 308.36 305.68 290.41 291.66 309.85 314.44 321.06 338.91 308.36"/><polygon class="cls-50" points="305.68 290.48 282.59 285.58 274.64 304.81 291.66 309.85 305.68 290.48"/><polygon class="cls-60" points="282.69 285.58 265.15 287.1 255.02 306.12 268.4 304.41 282.69 285.58"/><polygon class="cls-8" points="253.54 305.92 257.33 297.6 241.48 316.67 253.54 305.92"/><polygon class="cls-7" points="241.64 316.29 240.4 342.55 251.29 337.63 255.05 306.12 241.64 316.29"/><polygon class="cls-3" points="254.99 306.09 268.5 304.32 251.14 337.63 254.99 306.09"/><polygon class="cls-9" points="274.64 304.67 274.6 339.18 291.8 309.92 274.64 304.67"/><polygon class="cls-56" points="320.06 282.56 285.11 284.17 265.15 287.1 282.78 285.68 305.72 290.53 320.06 282.56"/><polygon class="cls-52" points="291.73 309.85 274.59 339.17 314.65 321.2 291.73 309.85"/><polygon class="cls-51" points="314.58 321.2 316.64 352.41 274.38 339.26 314.58 321.2"/><polygon class="cls-17" points="274.61 339.16 316.79 352.42 312.34 373.05 274.61 339.16"/><polygon class="cls-45" points="316.71 352.27 340.83 376.41 312.31 373.08 316.71 352.27"/><polygon class="cls-53" points="251.14 337.56 274.61 339.15 266.56 361.93 237.33 359.94 251.14 337.56"/><polygon class="cls-65" points="251.22 337.56 268.38 304.34 274.76 304.72 274.61 339.16 251.22 337.56"/><polygon class="cls-6" points="251.08 337.63 240.41 342.48 238.81 357.53 251.08 337.63"/><polygon class="cls-63" points="274.61 339.15 282.17 365.79 312.34 373.05 274.61 339.15"/><polygon class="cls-29" points="282.13 365.73 277.31 378.57 312.34 373.05 282.13 365.73"/><polygon class="cls-40" points="312.31 373.07 267.7 392.84 315.84 395.72 312.31 373.07"/><polygon class="cls-21" points="340.83 376.35 315.78 395.7 354.7 387.44 340.83 376.35"/><polygon class="cls-40" points="265.99 378.89 259.25 379.13 268.36 392.63 273.13 390.59 277.63 378.53 265.99 378.89"/><polygon class="cls-11" points="259.27 379.13 248.89 381.39 249.52 395.72 268.45 392.58 259.27 379.13"/><polygon class="cls-24" points="248.89 381.39 239.76 377.75 235.01 385.24 249.57 395.8 248.89 381.39"/><polygon class="cls-57" points="237.33 359.87 235.04 385.19 239.8 377.74 238.25 359.91 237.33 359.87"/><polygon class="cls-74" points="238.3 359.96 239.79 377.79 248.9 381.45 259.3 379.14 266.6 361.93 238.3 359.96"/><polygon class="cls-13" points="249.54 395.72 280.55 401.66 315.8 395.7 268.45 392.58 249.54 395.72"/><polygon class="cls-65" points="249.52 395.74 243.77 427.21 276.12 448.06 280.49 401.62 249.52 395.74"/><polygon class="cls-25" points="280.52 401.66 315.82 395.66 319.9 436.29 276.05 448.06 280.52 401.66"/><polygon class="cls-41" points="315.72 395.56 319.76 436.29 367.44 444.66 315.72 395.56"/><polygon class="cls-62" points="315.82 395.7 367.47 444.66 354.66 387.44 315.82 395.7"/><polygon class="cls-30" points="354.66 387.4 367.44 444.66 396.06 429.33 354.66 387.4"/><polygon class="cls-23" points="354.6 387.52 366.33 359.56 396.1 429.41 354.6 387.52"/><polygon class="cls-34" points="396.06 429.31 397.15 484.01 367.44 444.59 396.06 429.31"/><polygon class="cls-39" points="367.34 444.4 397.14 483.95 369 538.7 367.34 444.4"/><polygon class="cls-81" points="379.79 517.6 369.78 550.02 369 538.74 379.79 517.6"/><polygon class="cls-31" points="369 538.67 352.11 569.04 370.84 565.85 369 538.67"/><polygon class="cls-25" points="369.07 538.7 341.45 543.66 352.14 568.97 369.07 538.7"/><polygon class="cls-6" points="341.45 543.62 329.93 562.38 352.18 569.04 341.45 543.62"/><polygon class="cls-49" points="339.32 536.43 341.45 543.62 330.09 562.19 339.32 536.43"/><polygon class="cls-45" points="330.95 509.08 368.41 496.32 341.49 543.71 330.95 509.08"/><polygon class="cls-16" points="368.26 496.41 341.45 543.66 369.07 538.7 368.26 496.41"/><polygon class="cls-58" points="330.89 508.94 321.86 508.99 338.85 534.96 330.89 508.94"/><polygon class="cls-26" points="331.65 479.15 368.29 496.38 330.85 509.18 331.65 479.15"/><polygon class="cls-13" points="331.76 478.79 282.72 495.68 299.22 508.73 330.93 509.11 331.76 478.79"/><polygon class="cls-44" points="367.3 444.66 331.65 479.24 368.26 496.46 367.3 444.66"/><polygon class="cls-18" points="319.83 436.15 331.82 479.21 367.37 444.59 319.83 436.15"/><polygon class="cls-27" points="319.9 436.07 331.92 479 282.93 495.84 276.05 448.06 319.9 436.07"/><polygon class="cls-6" points="243.8 427.21 250.75 469.63 282.93 495.74 276.05 448.06 243.8 427.21"/><polygon class="cls-35" points="250.65 469.63 279.8 504.3 283.01 495.74 250.65 469.63"/><polygon class="cls-73" points="282.97 495.82 279.78 504.36 299.18 508.66 282.97 495.82"/><polygon class="cls-45" points="279.88 504.4 307.8 532.93 321.91 509.04 299.39 508.71 279.88 504.4"/><polygon class="cls-16" points="279.78 504.25 281.01 537.11 307.84 532.93 279.78 504.25"/><polygon class="cls-42" points="379.73 391.34 405.17 403.68 396 429.37 379.73 391.34"/><polygon class="cls-32" points="405.2 403.56 413.92 445.37 396.03 429.23 405.2 403.56"/><polygon class="cls-36" points="396.06 429.24 413.96 445.42 397.14 483.95 396.06 429.24"/><polygon class="cls-16" points="423.2 466.21 413.94 445.44 397.07 484.01 423.2 466.21"/><polygon class="cls-28" points="413.92 445.44 458.3 433.59 448.29 473.11 423.21 466.23 413.92 445.44"/><polygon class="cls-12" points="458.3 433.58 464.14 469.77 448.25 473.11 458.3 433.58"/><polygon class="cls-55" points="458.44 433.55 405.22 403.65 413.92 445.44 458.44 433.55"/><polygon class="cls-59" points="431.75 380.41 405.18 403.65 458.4 433.55 431.75 380.41"/><polygon class="cls-45" points="431.65 380.57 369.15 366.47 379.81 391.44 405.17 403.68 431.65 380.57"/><polygon class="cls-26" points="431.79 380.59 399 355.51 369.16 366.49 431.79 380.59"/><polygon class="cls-19" points="438.89 376.41 398.91 355.48 431.65 380.52 438.89 376.41"/><polygon class="cls-48" points="438.85 376.37 431.71 380.34 458.36 433.52 456.84 398.5 438.85 376.37"/><polygon class="cls-33" points="456.84 398.44 469.99 429.85 458.33 433.59 456.84 398.44"/><polygon class="cls-14" points="470 429.87 464.14 469.74 458.3 433.61 470 429.87"/><polygon class="cls-71" points="464.1 469.75 448.16 473.11 458.99 505.92 464.1 469.75"/><polygon class="cls-82" points="448.16 473.16 438.99 500.31 458.94 505.87 448.16 473.16"/><polygon class="cls-81" points="448.25 473.07 438.99 500.31 417.54 478.37 448.25 473.07"/><polygon class="cls-76" points="448.3 473.07 401.09 481.2 423.21 466.18 448.3 473.07"/><polygon class="cls-76" points="418.4 479.25 425.67 500.89 439.01 500.32 418.4 479.25"/><polygon class="cls-6" points="425.69 500.81 438.96 500.25 442.86 522.49 422.14 520.87 425.69 500.81"/><polygon class="cls-31" points="438.99 500.31 442.79 522.49 457.13 516.99 458.94 505.82 438.99 500.31"/><polygon class="cls-3" points="267.66 489.83 279.81 504.3 281.05 537.15 273.78 525.93 267.66 489.83"/><polygon class="cls-6" points="273.78 525.97 281.05 537.08 264.28 552.36 273.78 525.97"/><polygon class="cls-65" points="281.01 536.97 264.31 552.36 286.66 557.48 281.01 536.97"/><polygon class="cls-25" points="281.01 537.04 286.63 557.4 307.88 532.89 281.01 537.04"/><polygon class="cls-31" points="307.8 532.96 300.14 552.68 286.59 557.44 307.8 532.96"/><polygon class="cls-42" points="405.85 359.11 432.99 373.35 433.55 362.12 423.96 340.72 413.63 352.36 405.85 359.11"/><polygon class="cls-7" points="404.61 358.45 405.85 359.11 413.56 352.47 414.55 334.17 406.43 349.43 400.8 356.49 404.61 358.45"/><polygon class="cls-9" points="414.51 334.17 428.63 336.96 413.45 352.61 414.51 334.17"/><polygon class="cls-26" points="312.31 373.05 340.79 376.35 315.84 395.72 312.31 373.05"/><polygon class="cls-4" points="265.15 287.1 254.93 306.26 241.64 316.31 265.15 287.1"/><polygon class="cls-33" points="428.65 336.95 433.54 362.15 421.7 344.1 428.65 336.95"/><polygon class="cls-29" points="266.52 361.93 259.33 379.13 277.48 378.57 282.2 365.73 266.52 361.93"/><polygon class="cls-20" points="277.56 378.49 272.66 391.3 312.34 373.02 277.56 378.49"/><polygon class="cls-46" points="274.61 339.15 266.48 361.93 282.2 365.73 274.61 339.15"/><polygon class="cls-17" points="332.4 274.65 316.32 296.18 305.72 290.55 332.4 274.65"/><polygon class="cls-16" points="370.2 306.87 351.77 331.63 355.39 338.16 366.24 320.42 370.2 306.87"/><polygon class="cls-1" points="268.3 304.36 282.59 285.58 274.76 304.72 268.3 304.36"/><polygon class="cls-38" points="189.35 412.16 215.6 406.6 217.84 406.28 218.72 399.46 187.67 405.49 187.37 408.25 189.35 412.16"/><polyline class="cls-70" points="237.34 397.62 218.68 399.46 217.85 406.25 241.99 405.22 255.65 403.4"/><polygon class="cls-66" points="262.43 394.96 255.62 403.44 274.84 402.48 284.53 402.72 262.43 394.96"/><polygon class="cls-10" points="272.39 394.33 281.05 393.96 290.31 395.17 295.96 403.45 284.49 402.7 262.43 394.99 272.39 394.33"/><polyline class="cls-80" points="281.05 394 274.31 390.74 288.57 388.65 289.85 391.52"/><polygon class="cls-66" points="274.35 390.74 281.09 394 262.4 394.99 252.57 395.23 268.44 392.54 274.35 390.74"/><polygon class="cls-72" points="245.93 393.11 213.79 392.19 212.02 396.98 218.72 399.46 237.39 397.62 249.62 395.78 245.93 393.11"/><polygon class="cls-47" points="207.31 395.18 218.72 399.46 187.71 405.46 190.37 398.79 207.31 395.18"/><polygon class="cls-61" points="207.3 395.2 213.86 392.16 212.02 396.94 207.3 395.2"/><polygon class="cls-64" points="208.32 394.74 214.31 385.44 216.83 385.01 213.76 392.22 208.32 394.74"/><polygon class="cls-61" points="216.21 386.19 214.92 392.22 213.79 392.19 216.21 386.19"/><polygon class="cls-77" points="288.54 388.68 294.15 391.16 289.75 391.59 288.54 388.68"/><polygon class="cls-37" points="289.75 391.55 294.11 391.09 305.32 405.04 289.75 391.55"/><polygon class="cls-38" points="289.89 391.55 290.24 395.14 295.88 403.44 305.34 405.03 289.89 391.55"/><polygon class="cls-79" points="289.85 391.52 290.28 395.2 281.01 394 289.85 391.52"/><polygon class="cls-80" points="237.16 397.63 255.65 403.44 262.46 394.96 252.69 395.2 237.16 397.63"/></g></svg>