<?xml version="1.0" encoding="UTF-8"?><svg id="Layer_1" xmlns="http://www.w3.org/2000/svg" viewBox="0 0 1041.28 554.14"><defs><style>.cls-1{fill:none;}.cls-2{fill:#f6f7f8;}.cls-3{fill:#f2f2f2;}.cls-4{fill:#efba95;}.cls-5{fill:#efcfbd;}.cls-6{fill:#ebeaea;}.cls-7{fill:#fbbebe;}.cls-8{fill:#e3e8ee;}.cls-9{fill:#e9c6b0;}.cls-10{fill:#fff;}.cls-11{fill:#f2ab73;}.cls-12{fill:#ff6584;}.cls-13{fill:#6b4932;}.cls-14{fill:#65617d;}.cls-15{fill:#99a2a5;}.cls-16{fill:#7e3912;}.cls-17{fill:#8b8d90;}.cls-18{fill:#934e20;}.cls-19{fill:#a05e3d;}.cls-20{fill:#a04d14;}.cls-21{fill:#b67547;}.cls-22{fill:#b5b4b5;}.cls-23{fill:#b67649;}.cls-24{fill:#b7b3b0;}.cls-25{fill:#b9825e;}.cls-26{fill:#9e5e37;}.cls-27{fill:#c37138;}.cls-28{fill:#b3bbc5;}.cls-29{fill:#c1c6cb;}.cls-30{fill:#b7774a;}.cls-31{fill:#babdc1;}.cls-32{fill:#904213;}.cls-33{fill:#cecfcf;}.cls-34{fill:#ce7a40;}.cls-35{fill:#a5a3a2;}.cls-36{fill:#b35f2a;}.cls-37{fill:#ad6839;}.cls-38{fill:#c06932;}.cls-39{fill:#b2afad;}.cls-40{fill:#bd6934;}.cls-41{fill:#a59083;}.cls-42{fill:#a58a77;}.cls-43{fill:#a55723;}.cls-44{fill:#afacaa;}.cls-45{fill:#bbbdbf;}.cls-46{fill:#a85318;}.cls-47{fill:#aa5d30;}.cls-48{fill:#c19473;}.cls-49{fill:#ac6534;}.cls-50{fill:#c0bdbb;}.cls-51{fill:#d7b39a;}.cls-52{fill:#be6932;}.cls-53{fill:#cad4df;}.cls-54{fill:#d17c43;}.cls-55{fill:#cc8656;}.cls-56{fill:#d38d5d;}.cls-57{fill:#d1d1d1;}.cls-58{fill:#c47946;}.cls-59{fill:#c7733c;}.cls-60{fill:#d78c5b;}.cls-61{fill:#d6ddde;}.cls-62{fill:#cba487;}.cls-63{fill:#c8753a;}.cls-64{fill:#d4956a;}.cls-65{fill:#ad8a75;}.cls-66{fill:#c6896a;}.cls-67{fill:#c6c5c6;}.cls-68{fill:#dbbca7;}.cls-69{fill:#e1eaf0;}.cls-70{fill:#42372d;}.cls-71{fill:#4267b2;}.cls-72{fill:#3f3d56;}.cls-73{fill:#6e5c51;}.cls-74{fill:#9c4d1e;}.cls-75{fill:#957359;}.cls-76{fill:#808284;}.cls-77{fill:#2a303b;}.cls-78{fill:#39374d;}.cls-79{fill:#632d18;}.cls-80{fill:#5f4d41;}.cls-81{fill:#765339;}.cls-82{fill:#614f40;}.cls-83{fill:#733619;}.cls-84{fill:#833e1a;}.cls-85{opacity:.1;}.cls-85,.cls-86{isolation:isolate;}.cls-86{opacity:.2;}</style></defs><g id="Group_23"><path id="Path_299" class="cls-3" d="M961.47,438.17c-1.16,2.5-2.32,4.97-3.47,7.4-1.8,3.78-3.58,7.49-5.33,11.12-.78,1.61-1.56,3.19-2.32,4.77-8.6,17.57-16.63,33.11-23.45,45.89-12.6,23.59-37.07,38.42-63.81,38.7l-151.65,1.65h-1.6l-13,.14-11.12,.12-34.1,.37h-1.38l-17.36,.19h-.53l-107,1.16-95.51,1-11.11,.12-69,.75h-.08l-44.75,.48h-.48l-141.5,1.53-42.33,.46c-3.6,.04-7.21-.14-10.79-.54h0c-1.22-.14-2.44-.3-3.65-.49-19.74-3.05-37.84-12.77-51.29-27.54-18.21-20.03-31.46-43.4-40.36-68.76-1.29-3.66-2.49-7.37-3.6-11.12-30.81-104.15,6.75-238.52,74.35-328.44,2.83-3.76,5.71-7.43,8.64-11l.07-.08c20.79-25.52,44.1-46.84,68.93-62,44-26.91,92.75-34.49,140.7-11.9,40.57,19.12,78.45,28.11,115.17,30.55,3.71,.24,7.42,.42,11.11,.53,84.23,2.65,163.17-27.7,255.87-47.29,3.69-.78,7.39-1.55,11.12-2.28,66.13-13.16,139.49-20.1,226.73-5.51,9.06,1.48,18.01,3.62,26.76,6.4,3.85,1.24,7.55,2.57,11.12,4,41.64,16.94,64.35,48.24,74,87.46,.91,3.64,1.7,7.34,2.37,11.11,17.11,94.34-33,228.16-76.37,321.05Z"/><path id="Path_300" class="cls-85" d="M497.01,445.58c-.4,3.74-1.03,7.45-1.87,11.12h93.7v-11.12h-91.83Zm-78.25,62.81l11.11-.09v-27.47c-3.81-.17-7.52-.34-11.11-.52v28.08Zm-232.92-62.81v11.12h198.5v-11.12H185.84ZM1035.52,106.05h-74V18.56c-3.57-1.45-7.27-2.78-11.12-4V106.05h-253.54V13.63c-3.73,.73-7.43,1.5-11.12,2.28V106.05h-255.87V63.2c-3.69-.11-7.4-.29-11.11-.53v43.38H162.89V44.05c-24.83,15.16-48.14,36.48-68.93,62h-.07v.08c-2.93,3.6-5.81,7.27-8.64,11h8.64V445.58H10.89c1.11,3.75,2.31,7.46,3.6,11.12H93.88v93.62c3.99,1.22,8.07,2.15,12.2,2.79,1.21,.19,2.43,.35,3.65,.49h0c3.58,.4,7.19,.58,10.79,.54l42.33-.46v-97h255.91v94.21l11.11-.12v-94.07h255.87v91.36l11.12-.12v-91.24h253.49v4.77c.76-1.58,1.54-3.16,2.32-4.77,1.75-3.63,3.53-7.34,5.33-11.12,1.15-2.43,2.31-4.89,3.47-7.4V117.17h76.42c-.67-3.79-1.46-7.5-2.37-11.12ZM162.89,445.58V117.13h255.87V445.58H162.89Zm267,0V117.13h255.85V445.58h-255.85Zm520.48,0h-253.51V117.13h253.49l.02,328.44Z"/><path id="Path_301" class="cls-14" d="M863.08,533.62v13l-151.92,1.4-1.62,.03-57.74,.53-1.38,.02-17.55,.15h-.52l-106.98,.99-175.61,1.63h-.15l-44.65,.42h-.48s-198.4,1.83-198.4,1.83v-15l46.65-28,93.6-.78h2s.66-.02,.66-.02l2-.03,44.94-.37h2.01s.64-.02,.64-.02h2s14.41-.13,14.41-.13h.38s35.55-.31,35.55-.31h.29l277.4-2.34,6.79-.05h.68l5.18-.05,37.65-.31,2-.03,1.85-.02h.96l11.71-.09,2.32-.03,3.11-.02,9.75-.09,15.47-.13,2-.02,3.48-.02h.65l74.71-.64,56.16,28.5Z"/><path id="Path_302" class="cls-86" d="M863.08,533.62v13l-151.92,1.4-1.62,.03-57.74,.53-1.38,.02-17.55,.15h-.52l-106.98,.99-175.61,1.63h-.15l-44.65,.42h-.48s-198.4,1.83-198.4,1.83v-15l46.65-28,93.6-.78h2s.66-.02,.66-.02l2-.03,44.94-.37h2.01s.64-.02,.64-.02h2s14.41-.13,14.41-.13h.38s35.55-.31,35.55-.31h.29l277.4-2.34,6.79-.05h.68l5.18-.05,37.65-.31,2-.03,1.85-.02h.96l11.71-.09,2.32-.03,3.11-.02,9.75-.09,15.47-.13,2-.02,3.48-.02h.65l74.71-.64,56.16,28.5Z"/><path id="Path_303" class="cls-72" d="M296.09,483.62v24.49c0,2.37-1.36,4.52-3.5,5.54-.78,.38-1.63,.58-2.5,.6l-34.9,.74c-.93,.02-1.86-.17-2.7-.57-2.18-1-3.57-3.17-3.57-5.57v-25.23h47.17Z"/><path id="Path_304" class="cls-85" d="M296.09,483.62v24.49c0,2.37-1.36,4.52-3.5,5.54-.78,.38-1.63,.58-2.5,.6l-34.9,.74c-.93,.02-1.86-.17-2.7-.57-2.18-1-3.57-3.17-3.57-5.57v-25.23h47.17Z"/><path id="Path_305" class="cls-72" d="M298.09,483.62v24.49c0,2.37-1.36,4.52-3.5,5.54-.78,.38-1.63,.58-2.5,.6l-34.9,.74c-.93,.02-1.86-.17-2.7-.57-2.18-1-3.57-3.17-3.57-5.57v-25.23h47.17Z"/><rect id="Rectangle_137" class="cls-72" x="680.91" y="483.61" width="47.17" height="31.5"/><rect id="Rectangle_138" class="cls-85" x="680.91" y="483.61" width="47.17" height="31.5"/><rect id="Rectangle_139" class="cls-72" x="678.91" y="483.61" width="47.17" height="31.5"/><path id="Path_306" class="cls-85" d="M298.08,483.61v4.97l-47.17,1.26v-6.23h47.17Z"/><path id="Path_307" class="cls-14" d="M381.34,312.32v168.2c-.03,2.13-1.72,3.87-3.85,3.95l-191.65,5.1h-.05c-2.17-.03-3.92-1.78-3.95-3.95v-173.3c.03-2.17,1.78-3.92,3.95-3.95h191.6c2.17,.03,3.92,1.78,3.95,3.95h0Z"/><path id="Path_308" class="cls-85" d="M185.84,308.38v181.2h-.05c-2.17-.03-3.92-1.78-3.95-3.95v-173.3c.03-2.17,1.78-3.92,3.95-3.95h.05Z"/><path id="Path_309" class="cls-78" d="M194.58,319.11h177.5v148.25l-177.5,4v-152.25Z"/><path id="Path_310" class="cls-85" d="M726.08,483.61v6.41l-47.17-1.26v-5.15h47.17Z"/><path id="Path_311" class="cls-14" d="M788.34,312.32v173.3c-.03,2.19-1.81,3.95-4,3.95h0l-191.69-5.1c-2.13-.08-3.82-1.82-3.85-3.95v-168.2c.03-2.17,1.78-3.92,3.95-3.95h191.6c2.19,0,3.96,1.76,3.99,3.95Z"/><path id="Path_312" class="cls-85" d="M788.34,312.32v173.3c-.03,2.19-1.81,3.95-4,3.95h0v-181.2h0c2.19,0,3.97,1.76,4,3.95h0Z"/><path id="Path_313" class="cls-78" d="M775.58,319.11h-177.5v148.25l177.5,4v-152.25Z"/><path id="Path_314" class="cls-14" d="M583.84,312.32v168.2c-.03,2.13-1.72,3.87-3.85,3.95l-191.65,5.1h0c-2.19,0-3.97-1.76-4-3.95v-173.3c.03-2.17,1.78-3.92,3.95-3.95h191.6c2.17,.03,3.92,1.78,3.95,3.95Z"/><path id="Path_315" class="cls-71" d="M397.08,319.11h177.5v148.25l-177.5,4v-152.25Z"/><path id="Path_316" class="cls-85" d="M863.08,533.62v13l-151.92,1.4-1.62,.03-57.74,.53-1.38,.02-17.55,.15h-.52l-106.98,.99-175.61,1.63h-.15l-44.65,.42h-.48s-198.4,1.83-198.4,1.83v-15l202.51-1.33h.48l40.99-.28h.19l283.08-1.87h.46s.47-.01,.47-.01l4.79-.03h1.46l74.49-.5,4.4-.02h.98s142.7-.96,142.7-.96Z"/><circle id="Ellipse_111" class="cls-7" cx="487.25" cy="298.12" r="51.33"/><path id="Path_317" class="cls-7" d="M538.59,377.12s-99.5,12-90,0c3.44-4.34,4.39-17.2,4.2-31.85-.06-4.45-.22-9.06-.45-13.65-1.1-22-3.75-43.5-3.75-43.5,0,0,87-41,77-8.5-4,13.13-2.69,31.57,.35,48.88,.89,5.05,1.92,10,3,14.7,2.64,11.46,5.86,22.79,9.65,33.92Z"/><path id="Path_318" class="cls-12" d="M506.12,373.05c11.51-2.13,23.7-6,34.53-1.54,2.85,1.17,5.47,2.88,8.39,3.86s6.12,1.22,9.16,1.91c10.68,2.42,19.34,10.55,24.9,20s8.44,20.14,11.26,30.72l6.9,25.83c6,22.45,12,45.09,13.39,68.3-83.53,4.78-167.26,5.26-250.84,1.43,5.44-10.34,11-21.31,10.54-33s-7.19-23.22-4.76-34.74c1.55-7.34,6.57-13.39,9.64-20.22,8.75-19.52,1.94-45.79,17.32-60.65,6.92-6.68,17-9.21,26.63-8.89,12.28,.41,24.85,4.24,37,6.11,15.56,2.36,30.26,3.76,45.94,.88Z"/><path id="Path_319" class="cls-85" d="M637.02,484.22l-.1,1.43v.1l-.17,2.3-1.33,18.51-1.61,22.3-.46,6.28-1,13.44v.17l-107,1-175.59,1.9v.84h-.14v-1.12l.45-14.36,.86-28.06,.74-23.79,.07-2.37c.18-5.81,5.03-10.38,10.85-10.2,.19,0,.38,.02,.57,.03,4.72,.4,10.85,.89,18.18,1.41l3,.22c42.33,2.94,120.56,6.74,199.5,2,1.66-.09,3.33-.19,5-.31,12.24-.77,24.47-1.76,36.58-3,5.78-.61,10.96,3.59,11.57,9.38,.06,.62,.07,1.24,.03,1.85v.05Z"/><path id="Path_320" class="cls-72" d="M349.73,552.49v-.84l175.62-1.91,107-1h.3v-.17l1-13.44,.43-6,1.64-22.61,1.29-17.9v-.44c.06-.82,.02-1.65-.11-2.47,0-.03,0-.07,0-.1-.27-1.69-.96-3.28-2-4.64-2.24-2.87-5.8-4.38-9.42-4-12.11,1.24-24.34,2.23-36.58,3-1.67,.12-3.34,.22-5,.31-78.94,4.69-157.17,.89-199.5-2l-3-.22c-7.33-.52-13.46-1-18.18-1.41-5.38-.45-10.23,3.23-11.24,8.53-.1,.54-.16,1.09-.18,1.64l-.68,22.16-.93,28.07-.44,14.36v1.12l-.02-.04Z"/><path id="Path_321" class="cls-85" d="M637.32,491.23l-1.23,15.33-1.83,22.85-.46,5.72-1,12.81-.06,.64v.17h0l-.15,1.48,.11-1.48h-.29l-107,1-175.65,1.9v-.28l.49-14.36,1-28.06,.64-18.65c.06-2.16,1.22-4.13,3.06-5.25,1.13-.69,2.46-1.01,3.78-.9,2.1,.17,4.68,.37,7.69,.59,4.89,.36,10.92,.78,17.94,1.22,13,.82,29.31,1.7,48,2.42,52,2,122.2,2.67,188.88-3.17,3-.26,6.1-.55,9.13-.84,1.2-.12,2.41,.11,3.48,.66,.3,.15,.59,.33,.86,.54,.87,.63,1.56,1.48,2,2.46,.1,.2,.19,.4,.25,.61,.3,.83,.42,1.71,.36,2.59Z"/><path id="Path_322" class="cls-85" d="M298.09,504.92v3.19c0,2.37-1.36,4.52-3.5,5.54l-40.1,.77c-2.18-1-3.57-3.17-3.57-5.57v-3l47.17-.93Z"/><path id="Path_323" class="cls-72" d="M298.58,515.54l-52.25,1v-8.67l52.25-1v8.67Z"/><path id="Path_324" class="cls-85" d="M298.58,515.54l-52.25,1v-8.67l52.25-1v8.67Z"/><path id="Path_325" class="cls-72" d="M300.58,515.54l-52.25,1v-8.67l52.25-1v8.67Z"/><path id="Path_326" class="cls-85" d="M679.21,506.92v3.19c0,2.37,1.36,4.52,3.5,5.54l40.1,.77c2.18-1,3.57-3.17,3.57-5.57v-3l-47.17-.93Z"/><path id="Path_327" class="cls-85" d="M678.71,517.54l52.25,1v-8.67l-52.25-1v8.67Z"/><path id="Path_328" class="cls-72" d="M676.71,517.54l52.25,1v-8.67l-52.25-1v8.67Z"/><path id="Path_329" class="cls-72" d="M454.78,313.85c.08,7-3.16,13.6-5.91,20.07-10.01,23.57-14.35,49.16-12.66,74.71,.73,11,2.58,22,.73,32.9s-8.43,21.77-19,24.9c17.53,10.45,41.26,9.35,57.76-2.66,8.79-6.4,15.34-15.33,21.75-24.11-.76,15.77-5.33,31.13-13.31,44.75,29.18-2.58,55.89-17.42,73.51-40.82,4.31-5.81,8.06-12.19,9.72-19.23,3.09-13-1.22-26.51-4.51-39.5-2.75-10.86-4.81-21.88-6.17-33-.43-3.56-.78-7.22,.1-10.7,1-4.07,3.67-7.51,5.64-11.22,5.6-10.54,5.73-23.3,2.86-34.88s-8.49-22.26-14.06-32.81c-4.46-8.46-9.3-17.31-17.46-22.28-5.1-3.1-11-4.39-16.88-5.64l-25.37-5.43c-5.55-1.19-11.26-2.38-16.87-1.51-9.47,1.48-16.14,8.32-22,15.34-4.59,5.46-15.81,15.71-16.6,22.86-.72,6.59,5.1,17.63,6.09,24.58,1.3,9,2.22,6,7.3,11.52,3.21,3.42,5.28,7.37,5.34,12.16Z"/></g><g id="Layer_3"><polygon class="cls-6" points="247.62 334.01 245.65 341.29 248.46 361.09 257.39 349.99 247.62 334.01"/><polygon class="cls-26" points="247.62 334.01 265.01 348.87 257.38 349.99 247.62 334.01"/><polygon class="cls-29" points="272.79 351.29 297.23 336.71 301.54 343.65 295.8 362.6 291.65 369.35 285.4 358.1 272.79 351.29"/><polygon class="cls-19" points="295.76 362.63 295.82 377.61 291.62 369.42 295.76 362.63"/><polygon class="cls-47" points="291.62 369.27 286.14 383.9 291.4 388.13 295.82 377.54 291.62 369.27"/><polygon class="cls-52" points="291.65 369.28 276.92 374.72 286.14 383.93 291.65 369.28"/><polygon class="cls-21" points="285.42 358.06 276.1 362.88 276.91 374.73 291.63 369.28 285.42 358.06"/><polygon class="cls-58" points="285.39 358.06 272.77 351.24 267.45 358.62 276.1 362.88 285.39 358.06"/><polygon class="cls-54" points="272.77 351.27 264.01 349.41 260.99 356.71 267.45 358.62 272.77 351.27"/><polygon class="cls-64" points="264.04 349.41 257.38 349.98 253.54 357.21 258.62 356.56 264.04 349.41"/><polygon class="cls-10" points="252.98 357.13 254.41 353.97 248.39 361.21 252.98 357.13"/><polygon class="cls-9" points="248.46 361.07 247.98 371.04 252.12 369.17 253.55 357.21 248.46 361.07"/><polygon class="cls-4" points="253.53 357.2 258.65 356.52 252.06 369.17 253.53 357.2"/><polygon class="cls-11" points="260.99 356.66 260.97 369.76 267.5 358.65 260.99 356.66"/><polygon class="cls-60" points="278.23 348.26 264.96 348.87 257.38 349.98 264.08 349.45 272.79 351.29 278.23 348.26"/><polygon class="cls-56" points="267.48 358.62 260.97 369.76 276.18 362.94 267.48 358.62"/><polygon class="cls-55" points="276.15 362.94 276.94 374.79 260.89 369.79 276.15 362.94"/><polygon class="cls-21" points="260.98 369.76 276.99 374.79 275.3 382.63 260.98 369.76"/><polygon class="cls-49" points="276.96 374.73 286.12 383.9 275.29 382.64 276.96 374.73"/><polygon class="cls-57" points="252.06 369.15 260.98 369.75 257.92 378.4 246.82 377.65 252.06 369.15"/><polygon class="cls-69" points="252.09 369.15 258.61 356.53 261.03 356.68 260.97 369.76 252.09 369.15"/><polygon class="cls-8" points="252.04 369.17 247.99 371.02 247.38 376.73 252.04 369.17"/><polygon class="cls-67" points="260.97 369.75 263.84 379.87 275.3 382.63 260.97 369.75"/><polygon class="cls-33" points="263.83 379.84 262 384.72 275.3 382.62 263.83 379.84"/><polygon class="cls-44" points="275.29 382.63 258.35 390.14 276.63 391.23 275.29 382.63"/><polygon class="cls-25" points="286.12 383.88 276.61 391.23 291.39 388.09 286.12 383.88"/><polygon class="cls-44" points="257.7 384.84 255.14 384.93 258.6 390.06 260.41 389.29 262.12 384.71 257.7 384.84"/><polygon class="cls-15" points="255.15 384.93 251.21 385.79 251.45 391.23 258.63 390.04 255.15 384.93"/><polygon class="cls-28" points="251.21 385.79 247.74 384.41 245.94 387.25 251.47 391.26 251.21 385.79"/><polygon class="cls-61" points="246.82 377.62 245.95 387.24 247.76 384.41 247.17 377.63 246.82 377.62"/><polygon class="cls-77" points="247.19 377.65 247.75 384.42 251.21 385.81 255.16 384.94 257.93 378.4 247.19 377.65"/><polygon class="cls-17" points="251.45 391.23 263.23 393.49 276.62 391.23 258.63 390.04 251.45 391.23"/><polygon class="cls-69" points="251.45 391.24 249.26 403.19 261.55 411.11 263.21 393.48 251.45 391.24"/><polygon class="cls-29" points="263.22 393.49 276.62 391.21 278.17 406.64 261.52 411.11 263.22 393.49"/><polygon class="cls-45" points="276.59 391.17 278.12 406.64 296.23 409.82 276.59 391.17"/><polygon class="cls-66" points="276.62 391.23 296.24 409.82 291.38 388.09 276.62 391.23"/><polygon class="cls-34" points="291.38 388.07 296.23 409.82 307.1 404 291.38 388.07"/><polygon class="cls-27" points="291.35 388.12 295.8 377.5 307.11 404.03 291.35 388.12"/><polygon class="cls-38" points="307.09 403.99 307.51 424.76 296.23 409.79 307.09 403.99"/><polygon class="cls-43" points="296.19 409.72 307.51 424.74 296.82 445.53 296.19 409.72"/><polygon class="cls-83" points="300.92 437.52 297.12 449.83 296.82 445.54 300.92 437.52"/><polygon class="cls-35" points="296.82 445.52 290.41 457.05 297.52 455.84 296.82 445.52"/><polygon class="cls-29" points="296.85 445.53 286.36 447.41 290.42 457.02 296.85 445.53"/><polygon class="cls-8" points="286.36 447.4 281.98 454.52 290.43 457.05 286.36 447.4"/><polygon class="cls-53" points="285.55 444.67 286.36 447.4 282.04 454.45 285.55 444.67"/><polygon class="cls-49" points="282.37 434.28 296.59 429.43 286.37 447.43 282.37 434.28"/><polygon class="cls-20" points="296.54 429.47 286.36 447.41 296.85 445.53 296.54 429.47"/><polygon class="cls-62" points="282.35 434.23 278.92 434.25 285.37 444.11 282.35 434.23"/><polygon class="cls-30" points="282.64 422.91 296.55 429.46 282.33 434.32 282.64 422.91"/><polygon class="cls-17" points="282.68 422.78 264.06 429.19 270.32 434.15 282.36 434.29 282.68 422.78"/><polygon class="cls-48" points="296.17 409.82 282.64 422.95 296.54 429.49 296.17 409.82"/><polygon class="cls-22" points="278.15 406.59 282.7 422.94 296.2 409.79 278.15 406.59"/><polygon class="cls-31" points="278.17 406.56 282.74 422.86 264.14 429.25 261.52 411.11 278.17 406.56"/><polygon class="cls-8" points="249.28 403.19 251.91 419.3 264.14 429.22 261.52 411.11 249.28 403.19"/><polygon class="cls-39" points="251.88 419.3 262.95 432.46 264.16 429.22 251.88 419.3"/><polygon class="cls-76" points="264.15 429.24 262.94 432.49 270.31 434.12 264.15 429.24"/><polygon class="cls-49" points="262.98 432.5 273.58 443.34 278.94 434.27 270.39 434.14 262.98 432.5"/><polygon class="cls-20" points="262.94 432.45 263.41 444.93 273.59 443.34 262.94 432.45"/><polygon class="cls-46" points="300.89 389.57 310.55 394.25 307.07 404.01 300.89 389.57"/><polygon class="cls-36" points="310.57 394.21 313.88 410.09 307.08 403.96 310.57 394.21"/><polygon class="cls-40" points="307.09 403.96 313.89 410.11 307.51 424.74 307.09 403.96"/><polygon class="cls-20" points="317.4 418 313.88 410.11 307.48 424.76 317.4 418"/><polygon class="cls-32" points="313.88 410.11 330.73 405.61 326.93 420.62 317.4 418.01 313.88 410.11"/><polygon class="cls-16" points="330.73 405.61 332.95 419.35 326.92 420.62 330.73 405.61"/><polygon class="cls-59" points="330.78 405.6 310.57 394.24 313.88 410.11 330.78 405.6"/><polygon class="cls-63" points="320.65 385.42 310.56 394.24 330.77 405.6 320.65 385.42"/><polygon class="cls-49" points="320.61 385.48 296.88 380.13 300.92 389.61 310.55 394.26 320.61 385.48"/><polygon class="cls-30" points="320.66 385.49 308.21 375.96 296.88 380.13 320.66 385.49"/><polygon class="cls-23" points="323.36 383.9 308.18 375.95 320.61 385.46 323.36 383.9"/><polygon class="cls-52" points="323.35 383.88 320.63 385.39 330.75 405.59 330.18 392.29 323.35 383.88"/><polygon class="cls-37" points="330.18 392.26 335.17 404.2 330.74 405.61 330.18 392.26"/><polygon class="cls-18" points="335.17 404.2 332.95 419.34 330.73 405.62 335.17 404.2"/><polygon class="cls-74" points="332.93 419.35 326.88 420.62 330.99 433.08 332.93 419.35"/><polygon class="cls-84" points="326.88 420.64 323.4 430.95 330.97 433.06 326.88 420.64"/><polygon class="cls-83" points="326.92 420.61 323.4 430.95 315.25 422.62 326.92 420.61"/><polygon class="cls-79" points="326.93 420.61 309 423.69 317.4 417.99 326.93 420.61"/><polygon class="cls-79" points="315.58 422.95 318.34 431.17 323.4 430.95 315.58 422.95"/><polygon class="cls-8" points="318.35 431.14 323.38 430.93 324.87 439.37 317 438.76 318.35 431.14"/><polygon class="cls-35" points="323.4 430.95 324.84 439.37 330.29 437.28 330.97 433.04 323.4 430.95"/><polygon class="cls-4" points="258.34 426.97 262.95 432.46 263.42 444.94 260.66 440.68 258.34 426.97"/><polygon class="cls-8" points="260.66 440.7 263.42 444.91 257.05 450.72 260.66 440.7"/><polygon class="cls-69" points="263.41 444.87 257.06 450.72 265.55 452.66 263.41 444.87"/><polygon class="cls-29" points="263.41 444.9 265.54 452.63 273.61 443.32 263.41 444.9"/><polygon class="cls-35" points="273.58 443.35 270.67 450.84 265.52 452.65 273.58 443.35"/><polygon class="cls-46" points="310.81 377.33 321.12 382.74 321.33 378.47 317.69 370.35 313.77 374.77 310.81 377.33"/><polygon class="cls-9" points="310.34 377.08 310.81 377.33 313.74 374.81 314.12 367.86 311.03 373.66 308.9 376.33 310.34 377.08"/><polygon class="cls-11" points="314.1 367.86 319.46 368.92 313.7 374.86 314.1 367.86"/><polygon class="cls-30" points="275.29 382.63 286.11 383.88 276.63 391.23 275.29 382.63"/><polygon class="cls-5" points="257.38 349.98 253.5 357.26 248.45 361.08 257.38 349.98"/><polygon class="cls-37" points="319.47 368.92 321.33 378.49 316.83 371.63 319.47 368.92"/><polygon class="cls-33" points="257.9 378.4 255.17 384.93 262.07 384.72 263.86 379.84 257.9 378.4"/><polygon class="cls-24" points="262.09 384.69 260.24 389.56 275.3 382.61 262.09 384.69"/><polygon class="cls-50" points="260.97 369.75 257.89 378.4 263.86 379.84 260.97 369.75"/><polygon class="cls-21" points="282.92 345.26 276.81 353.43 272.79 351.3 282.92 345.26"/><polygon class="cls-20" points="297.27 357.49 290.28 366.9 291.65 369.37 295.77 362.64 297.27 357.49"/><polygon class="cls-2" points="258.58 356.54 264.01 349.41 261.03 356.68 258.58 356.54"/><polygon class="cls-42" points="228.6 397.47 238.57 395.36 239.42 395.24 239.75 392.65 227.96 394.94 227.85 395.99 228.6 397.47"/><polyline class="cls-73" points="246.82 391.95 239.74 392.65 239.42 395.23 248.59 394.84 253.78 394.15"/><polygon class="cls-70" points="256.35 390.94 253.76 394.16 261.06 393.8 264.74 393.89 256.35 390.94"/><polygon class="cls-13" points="260.13 390.71 263.42 390.57 266.94 391.03 269.08 394.17 264.73 393.88 256.35 390.96 260.13 390.71"/><polyline class="cls-82" points="263.42 390.58 260.86 389.34 266.28 388.55 266.76 389.64"/><polygon class="cls-70" points="260.88 389.34 263.44 390.58 256.34 390.96 252.61 391.05 258.63 390.03 260.88 389.34"/><polygon class="cls-75" points="250.08 390.24 237.88 389.89 237.21 391.71 239.75 392.65 246.84 391.95 251.49 391.25 250.08 390.24"/><polygon class="cls-51" points="235.42 391.03 239.75 392.65 227.98 394.93 228.99 392.4 235.42 391.03"/><polygon class="cls-65" points="235.41 391.04 237.91 389.88 237.21 391.7 235.41 391.04"/><polygon class="cls-68" points="235.8 390.86 238.08 387.33 239.04 387.16 237.87 389.91 235.8 390.86"/><polygon class="cls-65" points="238.8 387.61 238.31 389.91 237.88 389.89 238.8 387.61"/><polygon class="cls-80" points="266.26 388.56 268.39 389.5 266.72 389.67 266.26 388.56"/><polygon class="cls-41" points="266.72 389.65 268.38 389.48 272.64 394.77 266.72 389.65"/><polygon class="cls-42" points="266.78 389.65 266.91 391.01 269.05 394.16 272.65 394.77 266.78 389.65"/><polygon class="cls-81" points="266.76 389.64 266.92 391.04 263.41 390.58 266.76 389.64"/><polygon class="cls-82" points="246.75 391.96 253.78 394.16 256.36 390.94 252.65 391.04 246.75 391.96"/></g><rect class="cls-1" x="628.37" y="341.95" width="109.62" height="109.62"/><g><polygon class="cls-6" points="649.39 342.38 646.11 354.54 650.79 387.62 665.71 369.08 649.39 342.38"/><polygon class="cls-26" points="649.39 342.38 678.44 367.21 665.7 369.07 649.39 342.38"/><polygon class="cls-29" points="691.44 371.25 732.27 346.89 739.47 358.49 729.88 390.14 725.79 402.83 712.52 382.63 691.44 371.25"/><polygon class="cls-19" points="729.82 390.2 733.22 416.64 725.73 402.95 729.82 390.2"/><polygon class="cls-47" points="725.73 402.7 716.58 427.14 725.37 436.57 733.22 416.52 725.73 402.7"/><polygon class="cls-52" points="725.79 402.71 698.34 410.4 716.58 427.2 725.79 402.71"/><polygon class="cls-21" points="712.55 382.56 696.97 390.62 698.33 410.41 725.75 402.71 712.55 382.56"/><polygon class="cls-58" points="712.5 382.56 691.41 371.17 682.52 383.5 696.97 390.62 712.5 382.56"/><polygon class="cls-54" points="691.41 371.22 676.77 368.11 671.73 380.31 682.52 383.5 691.41 371.22"/><polygon class="cls-64" points="676.83 368.11 665.7 369.07 659.28 381.13 667.77 380.05 676.83 368.11"/><polygon class="cls-10" points="658.34 381.01 660.74 375.73 650.69 387.83 658.34 381.01"/><polygon class="cls-9" points="650.79 387.59 650 404.25 656.91 401.13 659.3 381.13 650.79 387.59"/><polygon class="cls-4" points="659.26 381.12 667.83 379.99 656.82 401.13 659.26 381.12"/><polygon class="cls-11" points="671.73 380.22 671.7 402.11 682.61 383.55 671.73 380.22"/><polygon class="cls-60" points="700.54 366.19 678.37 367.21 665.7 369.07 676.89 368.17 691.44 371.25 700.54 366.19"/><polygon class="cls-56" points="682.57 383.5 671.7 402.1 697.11 390.71 682.57 383.5"/><polygon class="cls-55" points="697.06 390.71 698.37 410.5 671.56 402.16 697.06 390.71"/><polygon class="cls-21" points="671.71 402.1 698.47 410.51 695.64 423.6 671.71 402.1"/><polygon class="cls-49" points="698.42 410.41 716.55 427.14 695.62 423.62 698.42 410.41"/><polygon class="cls-57" points="656.82 401.08 671.71 402.09 666.6 416.54 648.05 415.28 656.82 401.08"/><polygon class="cls-69" points="656.87 401.08 667.75 380.01 671.8 380.25 671.7 402.1 656.87 401.08"/><polygon class="cls-8" points="656.78 401.13 650.01 404.2 649 413.75 656.78 401.13"/><polygon class="cls-67" points="671.7 402.09 676.5 419 695.64 423.6 671.7 402.09"/><polygon class="cls-33" points="676.48 418.95 673.42 427.1 695.65 423.59 676.48 418.95"/><polygon class="cls-44" points="695.62 423.61 667.32 436.15 697.86 437.98 695.62 423.61"/><polygon class="cls-25" points="716.55 427.11 697.83 437.97 725.35 436.5 716.55 427.11"/><polygon class="cls-44" points="666.24 427.3 661.96 427.46 667.74 436.02 670.77 434.73 673.62 427.08 666.24 427.3"/><polygon class="cls-15" points="661.98 427.45 655.39 428.89 655.78 437.98 667.8 435.99 661.98 427.45"/><polygon class="cls-28" points="655.39 428.89 649.6 426.58 646.59 431.33 655.82 438.03 655.39 428.89"/><polygon class="cls-61" points="648.05 415.24 646.6 431.3 649.62 426.57 648.64 415.26 648.05 415.24"/><polygon class="cls-77" points="648.67 415.29 649.61 426.6 655.4 428.92 661.99 427.46 666.63 416.54 648.67 415.29"/><polygon class="cls-17" points="655.8 437.98 675.47 441.75 697.84 437.97 667.8 435.99 655.8 437.98"/><polygon class="cls-30" points="695.62 423.6 716.52 427.11 697.86 437.98 695.62 423.6"/><polygon class="cls-5" points="665.7 369.07 659.22 381.22 650.79 387.6 665.7 369.07"/><polygon class="cls-33" points="666.57 416.54 662.01 427.45 673.53 427.1 676.52 418.95 666.57 416.54"/><polygon class="cls-24" points="673.57 427.05 670.47 435.18 695.65 423.58 673.57 427.05"/><polygon class="cls-50" points="671.7 402.09 666.55 416.54 676.52 418.95 671.7 402.09"/><polygon class="cls-21" points="708.37 361.18 698.17 374.83 691.44 371.26 708.37 361.18"/><polygon class="cls-20" points="732.35 381.61 721.58 396.26 725.78 402.88 729.84 390.21 732.35 381.61"/><polygon class="cls-2" points="667.71 380.02 676.77 368.11 671.8 380.25 667.71 380.02"/><polygon class="cls-42" points="631.77 446.05 642.76 444.88 644.18 444.68 644.74 439.88 630.71 441.82 630.52 443.57 631.77 446.05"/><polyline class="cls-73" points="648.06 439.18 644.72 439.88 644.19 444.66 649.14 444.02 659.68 442.85"/><polygon class="cls-70" points="663.98 437.5 659.66 442.88 671.85 442.27 678 442.43 663.98 437.5"/><polygon class="cls-13" points="670.29 437.1 675.79 436.87 681.67 437.63 685.25 442.89 677.97 442.41 663.98 437.52 670.29 437.1"/><polyline class="cls-82" points="675.79 436.89 671.52 434.82 680.56 433.5 681.37 435.31"/><polygon class="cls-70" points="671.54 434.82 675.82 436.89 663.96 437.52 657.72 437.67 667.79 435.97 671.54 434.82"/><polygon class="cls-75" points="650.55 434.2 641.61 435.27 640.49 438.31 644.74 439.88 648.09 439.18 655.85 438.01 650.55 434.2"/><polygon class="cls-51" points="637.5 437.17 644.74 439.88 630.74 441.8 633.37 437.57 637.5 437.17"/><polygon class="cls-65" points="637.5 437.18 641.66 435.25 640.49 438.28 637.5 437.18"/><polygon class="cls-68" points="638.15 436.89 641.95 430.99 643.54 430.71 641.59 435.29 638.15 436.89"/><polygon class="cls-65" points="643.15 431.46 642.34 435.29 641.62 435.27 643.15 431.46"/><polygon class="cls-80" points="680.54 433.51 684.1 435.09 681.31 435.36 680.54 433.51"/><polygon class="cls-41" points="681.31 435.34 684.08 435.04 691.19 443.89 681.31 435.34"/><polygon class="cls-42" points="681.4 435.34 681.62 437.61 685.2 442.88 691.2 443.89 681.4 435.34"/><polygon class="cls-81" points="681.37 435.31 681.64 437.65 675.77 436.89 681.37 435.31"/><polygon class="cls-82" points="647.95 439.2 659.68 442.88 664 437.5 657.8 437.65 647.95 439.2"/></g></svg>