<?xml version="1.0" encoding="UTF-8"?><svg id="Layer_1" xmlns="http://www.w3.org/2000/svg" viewBox="0 0 1088 687.96"><defs><style>.cls-1{fill:#f6f7f8;}.cls-2{fill:#f2f2f2;}.cls-3{fill:#efba95;}.cls-4{fill:#efcfbd;}.cls-5{fill:#ebeaea;}.cls-6{fill:#e3e8ee;}.cls-7{fill:#e9c6b0;}.cls-8{fill:#fff;}.cls-9{fill:#f2ab73;}.cls-10{fill:#ff6584;}.cls-11{fill:#6b4932;}.cls-12{fill:#99a2a5;}.cls-13{fill:#6c63ff;}.cls-14{fill:#7e3912;}.cls-15{fill:#8b8d90;}.cls-16{fill:#934e20;}.cls-17{fill:#a05e3d;}.cls-18{fill:#a04d14;}.cls-19{fill:#b4c3c9;}.cls-20{fill:#b67547;}.cls-21{fill:#b5b4b5;}.cls-22{fill:#b7b3b0;}.cls-23{fill:#b9825e;}.cls-24{fill:#9e5e37;}.cls-25{fill:#c38b5d;}.cls-26{fill:#c37138;}.cls-27{fill:#b3bbc5;}.cls-28{fill:#c1c7cd;}.cls-29{fill:#c1c6cb;}.cls-30{fill:#b7774a;}.cls-31{fill:#904213;}.cls-32{fill:#cecfcf;}.cls-33{fill:#ce7a40;}.cls-34{fill:#a5a3a2;}.cls-35{fill:#b35f2a;}.cls-36{fill:#ad6839;}.cls-37{fill:#c06932;}.cls-38{fill:#bd6934;}.cls-39{fill:#a59083;}.cls-40{fill:#a58a77;}.cls-41{fill:#a55723;}.cls-42{fill:#afacaa;}.cls-43{fill:#bbbdbf;}.cls-44{fill:#aaadba;}.cls-45{fill:#a85318;}.cls-46{fill:#aa5d30;}.cls-47{fill:#c19473;}.cls-48{fill:#ac6534;}.cls-49{fill:#c0bdbb;}.cls-50{fill:#d7b39a;}.cls-51{fill:#be6932;}.cls-52{fill:#bf8862;}.cls-53{fill:#d17c43;}.cls-54{fill:#cc8656;}.cls-55{fill:#d38d5d;}.cls-56{fill:#d1d1d1;}.cls-57{fill:#c47946;}.cls-58{fill:#c7733c;}.cls-59{fill:#d78c5b;}.cls-60{fill:#d6ddde;}.cls-61{fill:#cba487;}.cls-62{fill:#c8753a;}.cls-63{fill:#d4956a;}.cls-64{fill:#ad8a75;}.cls-65{fill:#c6896a;}.cls-66{fill:#c6c5c6;}.cls-67{fill:#c6c4c8;}.cls-68{fill:#dba67c;}.cls-69{fill:#dbbca7;}.cls-70{fill:#e1eaf0;}.cls-71{fill:#a8a8a8;}.cls-72{fill:#42372d;}.cls-73{fill:#3f3d56;}.cls-74{fill:#6e5c51;}.cls-75{fill:#9c4d1e;}.cls-76{fill:#957359;}.cls-77{fill:#808284;}.cls-78{fill:#2a303b;}.cls-79{fill:#2f2e41;}.cls-80{fill:#632d18;}.cls-81{fill:#5f4d41;}.cls-82{fill:#765339;}.cls-83{fill:#614f40;}.cls-84{fill:#733619;}.cls-85{opacity:.1;}.cls-85,.cls-86{isolation:isolate;}.cls-86{opacity:.2;}</style></defs><path id="Path_83" class="cls-73" d="M961.81,454.44c-5.27,45.15-16.22,81.4-31.25,110.31-20,38.52-54.21,54.04-84.77,70.28-8.83,4.68-18.01,8.68-27.46,11.94-55.61,19.3-117.85,14.18-166.74,3.99-34.29-7.15-69.1-11.55-104.09-13.16-9.98-.45-19.97-.67-29.97-.67-15.42,.02-293.07,5.29-360.67-131.57-16.69-33.76-28.13-75-32.24-125.27-11.63-142.12,52.29-235.46,134.74-296.47,155.97-115.41,369.76-110.57,523.43,7.88,102.36,78.9,198.2,198.31,179.02,362.74Z"/><path id="Path_84" class="cls-2" d="M930.56,564.75c-20,38.52-47.21,64.04-77.77,80.28-8.83,4.68-18.01,8.68-27.46,11.94-55.61,19.3-117.85,14.18-166.74,3.99-34.29-7.15-69.1-11.55-104.09-13.16-9.98-.45-19.97-.67-29.97-.67-15.42,.02-30.84,.59-46.25,1.72-100.17,7.36-253.82-6.43-321.42-143.29L326,177.96l62.95,161.62,20.09,51.59,55.37-75.98,28.59-39.23,130.2,149.27,36.8-81.27,254.78,207.92,14.21,11.59,1.57,1.28Z"/><path id="Path_85" class="cls-85" d="M302,282.96l26-57,36,83-31-60-31,34Z"/><path id="Path_86" class="cls-85" d="M554.5,647.8c-9.98-.45-19.97-.67-29.97-.67l-115.49-255.96,145.46,256.63Z"/><path id="Path_87" class="cls-85" d="M464.41,315.19l28.59-22.23,130,150-132-128-26.59,.23Z"/><path id="Path_88" class="cls-85" d="M852.79,645.03c-8.83,4.68-18.01,8.68-27.46,11.94l-202.13-231.74,229.59,219.8Z"/><circle id="Ellipse_11" class="cls-2" cx="482" cy="101.96" r="3"/><circle id="Ellipse_12" class="cls-2" cx="399" cy="204.96" r="3"/><circle id="Ellipse_13" class="cls-2" cx="602" cy="222.96" r="2"/><circle id="Ellipse_14" class="cls-2" cx="182" cy="267.96" r="2"/><circle id="Ellipse_15" class="cls-2" cx="614" cy="98.96" r="2"/><circle id="Ellipse_16" class="cls-2" cx="738" cy="194.96" r="2"/><circle id="Ellipse_17" class="cls-2" cx="860" cy="346.96" r="2"/><path id="Path_89" class="cls-2" d="M306,121.22h-2.76v-2.76h-1.48v2.76h-2.76v1.48h2.76v2.76h1.48v-2.76h2.76v-1.48Z"/><path id="Path_90" class="cls-2" d="M848,424.22h-2.76v-2.76h-1.48v2.76h-2.76v1.48h2.76v2.76h1.48v-2.76h2.76v-1.48Z"/><path id="Path_91" class="cls-73" d="M1088,613.96c0,16.57-243.56,74-544,74S0,630.53,0,613.96s243.56,14,544,14,544-30.57,544-14Z"/><path id="Path_92" class="cls-85" d="M1088,613.96c0,16.57-243.56,74-544,74S0,630.53,0,613.96s243.56,14,544,14,544-30.57,544-14Z"/><ellipse id="Ellipse_18" class="cls-73" cx="544" cy="613.96" rx="544" ry="30"/><path id="Path_93" class="cls-10" d="M568,571.96c0,33.14-14.78,24-33,24s-33,9.14-33-24,33-96,33-96c0,0,33,62.86,33,96Z"/><path id="Path_94" class="cls-85" d="M550,584.64c0,15.06-6.72,10.91-15,10.91s-15,4.15-15-10.91,15-43.64,15-43.64c0,0,15,28.58,15,43.64Z"/><path id="Rectangle_97" class="cls-79" d="M498,604.96h74c4.97,0,9,4.03,9,9h0c0,4.97-4.03,9-9,9h-74c-4.97,0-9-4.03-9-9h0c0-4.97,4.03-9,9-9Z"/><path id="Rectangle_98" class="cls-79" d="M498,586.96h74c4.97,0,9,4.03,9,9h0c0,4.97-4.03,9-9,9h-74c-4.97,0-9-4.03-9-9h0c0-4.97,4.03-9,9-9Z"/><path id="Path_95" class="cls-73" d="M57.81,506.99c0,50.73,31.82,91.78,71.15,91.78"/><path id="Path_96" class="cls-13" d="M126.82,603.49c0-51.3,35.51-92.81,79.4-92.81"/><path id="Path_97" class="cls-13" d="M83.59,511.59c0,48.19,20.29,87.18,45.37,87.18"/><path id="Path_98" class="cls-73" d="M126.82,603.49c0-65.55,41.05-118.59,91.78-118.59"/><path id="Path_99" class="cls-71" d="M198.3,591.36s11.01-.34,14.33-2.7,16.93-5.18,17.76-1.4,16.54,18.84,4.11,18.95-28.88-1.94-32.19-3.95-4.01-10.9-4.01-10.9Z"/><path id="Path_100" class="cls-86" d="M234.72,604.89c-12.43,.1-28.88-1.94-32.19-3.95-2.52-1.54-3.53-7.05-3.86-9.59h-.37s.7,8.89,4.01,10.91,19.76,4.05,32.19,3.95c3.59-.03,4.83-1.3,4.76-3.2-.5,1.14-1.87,1.86-4.54,1.88Z"/><path id="Path_101" class="cls-73" d="M721.43,527.06c0,38.03,23.86,68.8,53.34,68.8"/><path id="Path_102" class="cls-13" d="M774.77,595.86c0-38.46,26.62-69.58,59.53-69.58"/><path id="Path_103" class="cls-13" d="M740.76,530.51c0,36.12,15.21,65.35,34.01,65.35"/><path id="Path_104" class="cls-73" d="M774.77,595.86c0-49.14,30.77-88.9,68.8-88.9"/><path id="Path_105" class="cls-71" d="M763.55,596.35s7.57-.23,9.84-1.86,11.64-3.56,12.2-.96,11.37,12.95,2.83,13.02-19.84-1.33-22.12-2.72-2.75-7.49-2.75-7.49Z"/><path id="Path_106" class="cls-86" d="M788.57,605.65c-8.54,.07-19.84-1.33-22.12-2.72-1.73-1.06-2.42-4.84-2.65-6.59h-.25s.48,6.11,2.76,7.5,13.58,2.78,22.12,2.72c2.47-.02,3.32-.9,3.27-2.2-.34,.79-1.28,1.28-3.12,1.29Z"/><path id="Path_107" class="cls-71" d="M893.81,618.7s11.36-1.73,14.5-4.59,16.89-7.49,18.22-3.67,19.49,17.45,6.63,19.11-30.15,1.61-33.84-.07-5.51-10.78-5.51-10.78Z"/><path id="Path_108" class="cls-86" d="M933.23,628.15c-12.86,1.66-30.15,1.61-33.84-.07-2.8-1.28-4.53-6.86-5.2-9.45l-.38,.06s1.83,9.11,5.52,10.78,20.97,1.72,33.84,.07c3.71-.48,4.84-1.96,4.53-3.91-.38,1.25-1.7,2.16-4.47,2.51Z"/><path id="Path_109" class="cls-71" d="M614.26,617.88s9.59-1.46,12.24-3.88,14.26-6.32,15.37-3.09,16.45,14.72,5.6,16.12-25.45,1.36-28.55-.05-4.66-9.1-4.66-9.1Z"/><path id="Path_110" class="cls-86" d="M647.52,625.86c-10.85,1.4-25.45,1.36-28.55-.05-2.37-1.08-3.83-5.79-4.39-7.98l-.32,.05s1.55,7.69,4.66,9.1,17.7,1.46,28.55,.05c3.13-.4,4.08-1.65,3.82-3.3-.31,1.06-1.43,1.83-3.77,2.12Z"/><path id="Path_111" class="cls-71" d="M125.96,609.52s7.46-1.14,9.53-3.02,11.1-4.92,11.97-2.41,12.81,11.46,4.36,12.55-19.81,1.06-22.23-.04-3.62-7.08-3.62-7.08Z"/><path id="Path_112" class="cls-86" d="M148.29,619.3c-8.45,1.09-19.81,1.06-22.23-.04-1.84-.84-2.98-4.51-3.42-6.21l-.25,.04s1.2,5.98,3.62,7.09,13.78,1.13,22.23,.04c2.44-.32,3.18-1.28,2.98-2.57-.25,.82-1.12,1.42-2.93,1.65Z"/><path id="Path_113" class="cls-85" d="M383.7,601.32c0,30.22-42.12,20.87-93.7,20.87s-93.07,9.35-93.07-20.87,42.12-36.79,93.69-36.79,93.08,6.57,93.08,36.79Z"/><g><polygon class="cls-37" points="294.18 574.42 304.83 628.74 324.8 584.2 294.18 574.42"/><polygon class="cls-41" points="324.79 584.19 304.59 628.79 363.43 659.42 324.79 584.19"/><polygon class="cls-84" points="333.73 643.48 369.46 673.08 363.45 659.29 333.73 643.48"/><polygon class="cls-34" points="363.43 659.22 392.16 676.76 372.89 682.43 363.43 659.22"/><polygon class="cls-29" points="363.37 659.26 390.35 654.39 392.12 676.69 363.37 659.26"/><polygon class="cls-28" points="390.34 654.34 407.91 664.2 392.09 676.77 390.34 654.34"/><polygon class="cls-19" points="390.82 646.92 390.34 654.34 407.54 663.89 390.82 646.92"/><polygon class="cls-48" points="376.37 639.05 363.48 659.3 390.32 654.44 391.09 647.2 376.37 639.05"/><polygon class="cls-18" points="337.5 635 376.53 639.12 363.47 659.26 337.5 635"/><polygon class="cls-61" points="376.27 639.12 385.12 636.96 390.98 647.13 376.27 639.12"/><polygon class="cls-30" points="369.1 610.26 337.46 634.98 376.48 639.12 369.1 610.26"/><polygon class="cls-15" points="368.92 609.94 420.03 615.49 406.96 631.73 376.39 639.07 368.92 609.94"/><polygon class="cls-47" points="324.81 584.25 369.12 610.35 337.51 635.05 324.81 584.25"/><polygon class="cls-21" points="371.08 566.09 368.95 610.36 324.77 584.23 371.08 566.09"/><polygon class="cls-67" points="370.99 566.04 368.81 610.18 419.87 615.69 416.02 567.99 370.99 566.04"/><polygon class="cls-44" points="443.29 587.21 424.75 623.18 419.78 615.62 443.29 587.21"/><polygon class="cls-77" points="419.83 615.68 424.8 623.24 406.98 631.66 419.83 615.68"/><polygon class="cls-48" points="443.27 587.26 452.06 624.46 424.78 623.18 433.69 605.67 443.27 587.26"/><polygon class="cls-18" points="443.27 587.33 469.72 604.2 452.05 624.49 443.27 587.33"/><polygon class="cls-45" points="303.32 535.94 281.43 553.46 294.17 574.39 303.32 535.94"/><polygon class="cls-35" points="281.37 553.35 282.14 595.69 294.25 574.37 281.37 553.35"/><polygon class="cls-38" points="294.17 574.39 282.11 595.75 306.84 629.3 294.17 574.39"/><polygon class="cls-18" points="277.74 617.88 282.14 595.76 306.92 629.35 277.74 617.88"/><polygon class="cls-31" points="282.16 595.76 236.65 594.06 256.77 631.18 277.75 617.9 282.16 595.76"/><polygon class="cls-14" points="236.65 594.04 240.71 631.44 256.81 631.17 236.65 594.04"/><polygon class="cls-58" points="236.5 594.06 281.38 553.44 282.16 595.76 236.5 594.06"/><polygon class="cls-62" points="250.61 536.81 281.41 553.44 236.54 594.05 250.61 536.81"/><polygon class="cls-48" points="250.75 536.94 308.81 509.44 303.26 536.06 281.44 553.47 250.75 536.94"/><polygon class="cls-30" points="250.62 536.99 276.81 505.53 308.79 509.46 250.62 536.99"/><polygon class="cls-52" points="242.84 534.5 276.89 505.48 250.74 536.89 242.84 534.5"/><polygon class="cls-51" points="242.86 534.46 250.64 536.73 236.57 594.01 230.34 559.82 242.86 534.46"/><polygon class="cls-36" points="230.33 559.75 224.52 593.02 236.61 594.07 230.33 559.75"/><polygon class="cls-16" points="224.51 593.03 240.7 631.41 236.65 594.08 224.51 593.03"/><polygon class="cls-75" points="236.76 621.21 229.74 604.41 207.15 610.38 236.76 621.21"/><polygon class="cls-51" points="229.7 604.39 215.24 595.63 207.21 610.36 229.7 604.39"/><polygon class="cls-25" points="229.74 604.51 215.24 595.63 226.29 583.24 224.54 593.06 229.74 604.51"/><polygon class="cls-80" points="256.75 631.13 295.35 624.77 277.73 617.86 256.75 631.13"/><polygon class="cls-51" points="227.55 576.07 219.58 581.18 215.3 595.61 226.28 583.19 227.55 576.07"/><polygon class="cls-6" points="219.64 581.23 215.31 595.64 198.61 589.1 208.95 580.33 219.64 581.23"/><polygon class="cls-68" points="215.24 595.63 198.64 589.03 197.87 604.24 207.26 610.38 215.24 595.63"/><polygon class="cls-3" points="442.75 577.18 442.91 583.02 443.07 587.4 469.74 604.24 464.17 592.22 442.75 577.18"/><polygon class="cls-6" points="464.2 592.24 469.68 604.21 491.37 598.2 464.2 592.24"/><polygon class="cls-70" points="469.61 604.12 491.35 598.23 483.83 619.68 469.61 604.12"/><polygon class="cls-29" points="469.66 604.16 483.78 619.61 452 624.5 469.66 604.16"/><polygon class="cls-34" points="452.09 624.48 472.69 628.47 483.84 619.61 452.09 624.48"/><polygon class="cls-45" points="270.97 510.52 247.87 530.25 242.99 514.65 247.56 491.85 260.11 500.83 270.97 510.52"/><polygon class="cls-7" points="272.03 509.61 270.97 510.52 260.2 500.92 254.9 482.02 266.92 498.58 275.28 506.87 272.03 509.61"/><polygon class="cls-9" points="254.93 482.01 241.89 487.81 260.2 500.88 254.93 482.01"/><polygon class="cls-36" points="241.88 487.81 243.01 514.68 247.56 491.87 241.88 487.81"/><polygon class="cls-5" points="413.61 366.51 422.11 384.26 424.31 436.44 396.12 412.18 413.61 366.51"/><polygon class="cls-24" points="413.61 366.51 376.02 412.93 396.13 412.17 413.61 366.51"/><polygon class="cls-29" points="357.19 422.82 287.52 396.99 279.76 416.86 303.49 462.77 317.33 478.15 328.04 446.31 357.19 422.82"/><polygon class="cls-17" points="303.6 462.85 310.55 501.34 317.45 478.31 303.6 462.85"/><polygon class="cls-46" points="317.38 477.92 338.39 512.88 326.89 526.24 310.52 501.15 317.38 477.92"/><polygon class="cls-51" points="317.29 477.96 357.72 484.95 338.41 512.98 317.29 477.96"/><polygon class="cls-20" points="327.97 446.2 354.2 454.16 357.74 484.97 317.36 477.95 327.97 446.2"/><polygon class="cls-57" points="328.04 446.19 357.21 422.7 374.38 439.13 354.2 454.16 328.04 446.19"/><polygon class="cls-53" points="357.23 422.77 378.85 413.83 390.06 431.15 374.38 439.13 357.23 422.77"/><polygon class="cls-63" points="378.75 413.85 396.13 412.16 409.42 428.88 396.08 429.63 378.75 413.85"/><polygon class="cls-8" points="410.84 428.43 405.65 420.99 424.53 436.73 410.84 428.43"/><polygon class="cls-7" points="424.3 436.39 430.25 461.77 418.75 458.93 409.4 428.88 424.3 436.39"/><polygon class="cls-3" points="409.45 428.85 395.97 429.55 418.89 458.91 409.45 428.85"/><polygon class="cls-9" points="390.03 431.01 396.3 464.64 374.25 439.22 390.03 431.01"/><polygon class="cls-59" points="341.78 417.63 376.14 412.9 396.13 412.17 378.68 413.96 357.19 422.82 341.78 417.63"/><polygon class="cls-55" points="374.31 439.14 396.3 464.63 354.01 454.34 374.31 439.14"/><polygon class="cls-54" points="354.08 454.32 357.7 485.12 396.52 464.69 354.08 454.32"/><polygon class="cls-20" points="396.28 464.63 357.55 485.16 365.61 504.47 396.28 464.63"/><polygon class="cls-48" points="357.6 485 338.44 512.87 365.65 504.5 357.6 485"/><polygon class="cls-56" points="418.87 458.84 396.28 464.62 408.24 485.37 436.38 478.17 418.87 458.84"/><polygon class="cls-70" points="418.8 458.85 396.09 429.56 389.93 431.08 396.29 464.63 418.8 458.85"/><polygon class="cls-6" points="418.96 458.89 430.23 461.7 434.5 476.08 418.96 458.89"/><polygon class="cls-66" points="396.29 464.62 393.72 491.96 365.61 504.47 396.29 464.62"/><polygon class="cls-32" points="393.74 491.88 400.76 503.53 365.6 504.47 393.74 491.88"/><polygon class="cls-42" points="365.65 504.48 412.7 515.72 366.29 527.2 365.65 504.48"/><polygon class="cls-23" points="338.43 512.83 366.34 527.18 326.9 526.13 338.43 512.83"/><polygon class="cls-42" points="411.85 501.81 418.47 500.83 412.02 515.63 407 514.51 400.44 503.56 411.85 501.81"/><polygon class="cls-12" points="418.44 500.83 428.98 501.17 430.95 515.25 411.92 515.6 418.44 500.83"/><polygon class="cls-27" points="428.98 501.17 437.22 495.97 443.2 502.42 430.9 515.33 428.98 501.17"/><polygon class="cls-60" points="436.37 478.1 443.17 502.37 437.18 495.97 435.47 478.3 436.37 478.1"/><polygon class="cls-78" points="435.43 478.36 437.2 496.01 428.97 501.22 418.43 500.84 408.2 485.38 435.43 478.36"/><polygon class="cls-15" points="430.93 515.26 401.76 526.64 366.32 527.18 411.92 515.6 430.93 515.26"/><polygon class="cls-70" points="430.95 515.26 442.23 544.91 414.44 571.08 401.82 526.59 430.95 515.26"/><polygon class="cls-29" points="401.79 526.63 366.29 527.15 369.64 567.49 414.51 571.06 401.79 526.63"/><polygon class="cls-43" points="366.38 527.02 369.78 567.46 324.78 584.22 366.38 527.02"/><polygon class="cls-65" points="366.3 527.18 324.77 584.22 326.94 526.13 366.3 527.18"/><polygon class="cls-33" points="326.93 526.09 324.8 584.22 294.13 574.44 326.93 526.09"/><polygon class="cls-26" points="327.02 526.19 310.55 501.05 294.1 574.51 327.02 526.19"/><polygon class="cls-6" points="442.2 544.91 443.11 587.42 419.75 615.71 414.51 571.06 442.2 544.91"/><polygon class="cls-30" points="365.64 504.46 338.48 512.82 366.29 527.2 365.64 504.46"/><polygon class="cls-4" points="396.13 412.17 409.54 429 424.31 436.4 396.13 412.17"/><polygon class="cls-32" points="408.28 485.37 418.39 500.84 400.59 503.57 393.67 491.9 408.28 485.37"/><polygon class="cls-22" points="400.51 503.51 407.59 515.11 365.6 504.44 400.51 503.51"/><polygon class="cls-49" points="396.29 464.62 408.31 485.36 393.67 491.9 396.29 464.62"/><polygon class="cls-20" points="328.32 412.16 347.88 430.24 357.19 422.84 328.32 412.16"/><polygon class="cls-18" points="297.28 450.38 319.7 471.2 317.35 478.21 303.57 462.88 297.28 450.38"/><polygon class="cls-1" points="396.16 429.57 378.85 413.83 389.93 431.08 396.16 429.57"/><polygon class="cls-40" points="492.57 520.43 465.97 519.73 463.74 519.83 461.65 513.35 493 513.62 493.79 516.27 492.57 520.43"/><polyline class="cls-74" points="443.16 514.9 461.68 513.34 463.73 519.8 440 523.16 426.35 523.84"/><polygon class="cls-72" points="418.22 516.83 426.39 523.87 407.48 526.4 398.07 528.39 418.22 516.83"/><polygon class="cls-11" points="408.4 518.02 399.88 519.22 391.07 522.07 387.06 531.16 398.11 528.36 418.23 516.87 408.4 518.02"/><polyline class="cls-83" points="399.89 519.25 405.87 514.86 391.61 515.4 390.86 518.42"/><polygon class="cls-72" points="405.84 514.86 399.86 519.26 418.25 516.86 427.88 515.32 411.93 515.56 405.84 514.86"/><polygon class="cls-76" points="433.98 512.06 465.15 505.37 467.73 509.72 461.65 513.35 443.12 514.91 430.85 515.32 433.98 512.06"/><polygon class="cls-50" points="472 507.11 461.65 513.35 492.96 513.6 489.16 507.58 472 507.11"/><polygon class="cls-64" points="472.02 507.14 465.07 505.34 467.73 509.68 472.02 507.14"/><polygon class="cls-69" points="470.93 506.87 463.41 498.88 460.88 498.91 465.18 505.39 470.93 506.87"/><polygon class="cls-64" points="461.7 499.95 464.04 505.61 465.14 505.37 461.7 499.95"/><polygon class="cls-81" points="391.63 515.42 386.62 518.85 390.98 518.47 391.63 515.42"/><polygon class="cls-39" points="390.97 518.44 386.64 518.77 378.22 534.39 390.97 518.44"/><polygon class="cls-40" points="390.84 518.46 391.14 522.02 387.13 531.13 378.2 534.39 390.84 518.46"/><polygon class="cls-82" points="390.86 518.42 391.11 522.09 399.92 519.25 390.86 518.42"/><polygon class="cls-83" points="443.33 514.89 426.36 523.88 418.19 516.84 427.76 515.32 443.33 514.89"/></g></svg>